<?xml version="1.0" standalone="no"?>
<!DOCTYPE svg PUBLIC "-//W3C//DTD SVG 20010904//EN"
 "http://www.w3.org/TR/2001/REC-SVG-20010904/DTD/svg10.dtd">
<svg version="1.0" xmlns="http://www.w3.org/2000/svg"
 width="1347.000000pt" height="1347.000000pt" viewBox="0 0 1347.000000 1347.000000"
 preserveAspectRatio="xMidYMid meet">

<g transform="translate(0.000000,1347.000000) scale(0.100000,-0.100000)"
fill="#000000" stroke="none">
<path d="M6492 13444 c-12 -8 -27 -12 -34 -8 -7 5 -8 3 -4 -5 5 -7 14 -10 21
-7 8 3 16 0 19 -7 3 -9 5 -9 5 1 1 6 9 12 19 13 10 0 12 3 4 6 -6 2 -10 9 -6
14 8 13 2 11 -24 -7z"/>
<path d="M6537 13449 c7 -7 15 -10 18 -7 3 3 -2 9 -12 12 -14 6 -15 5 -6 -5z"/>
<path d="M7063 13440 c-4 -16 -8 -18 -20 -9 -11 10 -17 8 -30 -10 -11 -16 -18
-20 -26 -12 -17 17 -31 13 -17 -4 11 -13 10 -14 -4 -9 -9 3 -16 10 -16 15 0 5
-16 8 -35 7 -19 -1 -35 -5 -35 -10 0 -4 -72 -8 -160 -8 -100 0 -160 4 -160 10
0 6 -9 10 -21 10 -11 0 -18 -4 -14 -9 3 -5 0 -13 -6 -17 -7 -4 -9 -3 -5 4 4 6
-1 10 -11 10 -10 -1 -35 2 -55 5 -21 4 -48 3 -61 -2 -17 -7 -29 -6 -37 2 -10
9 -11 9 -6 0 5 -8 1 -13 -9 -13 -9 0 -14 4 -11 9 3 5 -7 11 -23 13 -23 3 -28
1 -23 -11 4 -13 2 -14 -9 -3 -19 18 -39 15 -33 -5 4 -13 3 -15 -4 -5 -8 12
-26 19 -57 21 -5 1 -3 6 5 11 8 5 10 10 4 10 -6 0 -17 -7 -24 -14 -8 -11 -18
-12 -36 -5 -17 6 -23 6 -19 -1 8 -12 3 -13 -28 -1 -14 6 -28 7 -31 3 -4 -3
-29 -5 -56 -3 -60 3 -93 -6 -83 -22 5 -9 3 -9 -8 -1 -16 12 -59 16 -59 5 0 -4
-14 -6 -30 -5 -44 3 -344 -50 -555 -97 -684 -155 -1371 -430 -1962 -785 -68
-41 -127 -74 -132 -74 -5 0 -11 -4 -13 -9 -1 -4 -42 -33 -91 -64 -766 -493
-1489 -1224 -1995 -2019 -133 -208 -230 -382 -228 -409 3 -29 -12 -51 -28 -42
-6 3 -7 2 -3 -2 11 -12 38 -15 31 -4 -3 5 2 12 11 15 9 4 14 13 11 20 -3 7 -1
16 5 19 5 4 9 3 8 -2 -1 -4 1 -16 5 -25 7 -16 29 -18 253 -18 240 0 245 0 240
20 -3 11 0 23 5 27 7 3 8 1 4 -5 -4 -7 -2 -12 4 -12 6 0 8 -4 5 -10 -3 -5 -1
-11 4 -11 6 -1 17 -2 24 -3 6 -1 20 8 30 19 10 11 15 13 10 5 -4 -8 -8 -17 -8
-20 0 -3 -23 -45 -51 -95 -498 -880 -777 -1850 -811 -2822 -6 -183 -6 -183 15
-183 22 0 22 0 22 270 0 263 0 270 20 270 19 0 20 7 20 145 0 138 1 145 20
145 19 0 20 7 20 125 0 118 1 125 20 125 18 0 20 7 20 85 0 84 0 85 25 85 25
0 25 1 25 80 0 73 2 80 20 80 18 0 20 7 20 85 0 78 2 85 20 85 18 0 20 7 20
65 0 58 2 65 20 65 18 0 20 7 20 60 0 53 2 60 20 60 18 0 20 7 20 65 0 58 2
65 20 65 18 0 20 7 20 60 0 57 1 60 25 60 23 0 25 4 25 40 0 33 3 40 20 40 17
0 20 7 20 45 0 38 3 45 20 45 18 0 20 7 20 60 0 53 2 60 20 60 17 0 20 7 20
45 0 38 3 45 20 45 17 0 20 7 20 40 0 33 3 40 20 40 17 0 20 7 20 40 0 36 3
40 25 40 23 0 25 4 25 45 0 38 3 45 20 45 17 0 20 7 20 40 0 33 3 40 20 40 17
0 20 7 20 40 0 33 3 40 20 40 13 0 20 7 20 20 0 13 7 20 20 20 17 0 20 7 20
45 0 38 3 45 20 45 15 0 20 7 20 26 0 23 3 26 25 22 23 -5 25 -2 25 33 0 32 3
39 20 39 16 0 20 7 21 33 1 17 1 38 0 45 -1 6 7 12 19 12 13 0 20 7 20 20 0
13 7 20 20 20 17 0 20 7 20 40 0 33 3 40 20 40 13 0 20 7 20 20 0 13 7 20 20
20 13 0 20 7 20 20 0 15 7 20 25 20 23 0 25 4 25 45 0 38 3 45 20 45 13 0 20
7 20 20 0 13 7 20 20 20 13 0 20 7 20 20 0 13 7 20 20 20 17 0 20 7 20 40 0
33 3 40 20 40 15 0 20 7 20 25 0 18 5 25 20 25 13 0 20 7 20 20 0 15 7 20 25
20 18 0 25 5 25 20 0 13 7 20 20 20 13 0 20 7 20 20 0 13 7 20 20 20 13 0 20
7 20 20 0 13 7 20 20 20 13 0 20 7 20 20 0 13 7 20 20 20 15 0 20 7 20 25 0
18 5 25 20 25 13 0 20 7 20 20 0 15 7 20 25 20 18 0 25 5 25 20 0 13 7 20 20
20 13 0 20 7 20 19 0 15 10 21 40 26 25 4 40 12 40 21 0 8 9 14 20 14 13 0 20
7 20 20 0 12 7 20 16 20 9 0 22 8 29 17 11 14 16 15 28 5 12 -10 16 -10 19 0
5 15 139 14 266 -4 6 -1 12 -10 12 -20 0 -14 8 -18 40 -18 36 0 40 -2 40 -25
0 -20 5 -25 25 -25 18 0 25 -5 25 -20 0 -13 7 -20 20 -20 13 0 20 -7 20 -20 0
-13 7 -20 20 -20 15 0 20 -7 20 -26 0 -19 4 -25 15 -21 8 4 17 2 20 -3 4 -6
-1 -10 -9 -10 -9 0 -16 -4 -16 -10 0 -5 7 -10 15 -10 14 0 21 -47 16 -102 -2
-11 5 -18 14 -18 9 0 13 5 10 10 -3 6 -1 10 4 10 6 0 11 -7 11 -15 0 -9 -9
-15 -21 -15 -14 0 -19 -5 -17 -17 2 -11 11 -17 21 -15 14 2 17 -5 17 -43 0
-38 3 -45 20 -45 17 0 20 -7 20 -45 0 -41 2 -45 25 -45 18 0 25 -5 25 -20 0
-13 7 -20 20 -20 13 0 20 -7 20 -20 0 -13 7 -20 20 -20 17 0 20 -7 20 -39 0
-33 4 -40 23 -44 l22 -4 -22 -2 c-16 -1 -23 -7 -23 -21 0 -15 -7 -20 -25 -20
-18 0 -25 -5 -25 -20 0 -13 -7 -20 -20 -20 -15 0 -20 -7 -20 -25 0 -18 -5 -25
-20 -25 -15 0 -20 -7 -20 -27 0 -26 5 -23 75 47 l75 74 120 1 c66 0 120 -2
120 -4 0 -2 -66 -72 -147 -155 -281 -288 -485 -552 -693 -896 -62 -101 -215
-397 -255 -490 -87 -205 -159 -399 -196 -527 l-18 -63 25 0 c23 0 24 3 24 65
0 58 2 65 20 65 18 0 20 7 20 59 0 54 2 59 20 54 18 -5 20 0 20 46 0 44 3 51
20 51 17 0 20 7 20 40 0 33 3 40 20 40 17 0 20 7 20 40 0 33 3 40 20 40 17 0
20 7 20 45 0 41 2 45 25 45 23 0 25 4 25 40 0 33 3 40 20 40 17 0 20 7 20 40
0 33 3 40 20 40 17 0 20 7 20 45 0 38 3 45 20 45 17 0 20 7 20 40 0 33 3 40
20 40 17 0 20 7 20 40 0 33 3 40 20 40 13 0 20 7 20 20 0 15 7 20 25 20 23 0
25 4 25 45 0 38 3 45 20 45 13 0 20 7 20 20 0 13 7 20 20 20 13 0 20 7 20 20
0 13 7 20 20 20 17 0 20 7 20 40 0 33 3 40 20 40 15 0 20 7 20 25 0 18 5 25
20 25 17 0 20 7 20 40 0 36 3 40 25 40 19 0 25 5 25 21 0 19 2 20 17 8 11 -10
14 -10 9 -1 -4 6 -3 12 3 12 5 0 12 8 14 18 4 15 5 15 6 -1 2 -33 26 -11 29
26 3 29 7 37 23 37 14 0 19 7 19 25 0 18 5 25 20 25 13 0 20 7 20 20 0 13 7
20 20 20 13 0 20 7 20 20 0 15 7 20 25 20 18 0 25 5 25 20 0 13 7 20 20 20 13
0 20 7 20 20 0 13 7 20 20 20 17 0 20 7 20 45 0 38 3 45 20 45 13 0 20 7 20
20 0 13 7 20 20 20 13 0 20 7 20 20 0 13 7 20 20 20 13 0 20 7 20 20 0 15 7
20 25 20 18 0 25 5 25 20 0 17 7 20 40 20 33 0 40 3 40 20 0 13 7 20 20 20 15
0 20 7 20 25 0 18 5 25 20 25 13 0 20 7 20 20 0 13 7 20 20 20 13 0 20 7 20
20 0 15 7 20 25 20 18 0 25 5 25 20 0 13 7 20 20 20 13 0 20 7 20 20 0 17 7
20 40 20 33 0 40 3 40 20 0 13 7 20 20 20 15 0 20 7 20 25 0 18 5 25 20 25 13
0 20 7 20 20 0 17 7 20 45 20 38 0 45 3 45 20 0 13 7 20 20 20 13 0 20 7 20
20 0 17 7 20 40 20 33 0 40 3 40 20 0 13 7 20 20 20 11 0 20 4 20 9 0 4 11 6
25 3 18 -3 25 0 23 9 -2 8 7 15 20 17 15 2 22 10 22 25 0 18 6 22 36 24 22 1
43 10 54 23 13 15 19 17 23 8 4 -10 6 -10 6 0 1 6 10 12 21 12 13 0 20 7 20
20 0 17 7 20 45 20 39 0 45 3 45 21 0 13 6 20 18 18 9 -1 36 -1 60 0 35 1 42
4 42 21 0 17 7 20 45 20 38 0 45 3 45 20 0 15 7 20 29 20 57 0 91 12 91 31 0
17 8 19 65 19 55 0 65 3 65 18 0 13 9 17 38 19 74 4 122 14 122 27 0 10 21 14
77 15 42 1 81 5 86 8 6 4 29 7 51 9 78 4 84 5 56 14 -22 7 -21 8 12 9 20 1 39
-3 42 -8 3 -5 154 -10 335 -10 260 -1 330 1 334 11 4 8 8 9 14 3 12 -15 56
-38 48 -26 -3 6 -1 11 4 11 6 0 11 -6 11 -12 0 -10 2 -10 9 0 7 11 9 10 15 -3
3 -9 10 -13 16 -10 7 4 10 -42 10 -134 0 -102 -3 -141 -12 -144 -10 -4 -10 -6
0 -6 24 -2 12 -31 -13 -31 -24 0 -25 -2 -25 -65 0 -58 -2 -65 -20 -65 -17 0
-20 -7 -20 -40 0 -33 -3 -40 -20 -40 -12 0 -20 -7 -20 -17 0 -15 2 -16 10 -3
5 8 10 10 10 4 0 -5 -4 -14 -10 -20 -5 -5 -10 -25 -12 -43 -2 -23 -8 -36 -20
-39 -14 -3 -18 -15 -18 -48 0 -37 -3 -44 -20 -44 -17 0 -20 -7 -20 -40 0 -33
-3 -40 -20 -40 -11 0 -20 -7 -20 -15 0 -8 9 -15 20 -15 21 0 115 185 539 1054
l116 239 184 -374 c102 -206 240 -488 309 -627 75 -153 128 -249 134 -245 7 4
8 1 4 -6 -9 -13 12 -73 23 -67 3 2 5 25 3 50 -3 37 -8 46 -23 46 -15 0 -19 7
-19 40 0 33 -3 40 -20 40 -22 0 -26 20 -8 38 9 9 9 12 0 12 -7 0 -12 9 -12 20
0 19 -9 24 -36 21 -6 -1 -11 7 -11 16 0 88 -3 103 -23 103 -17 0 -20 7 -20 45
0 38 -3 45 -20 45 -11 0 -20 5 -20 10 0 6 5 10 12 10 9 0 9 3 0 12 -7 7 -12
38 -12 70 0 51 -2 58 -20 58 -27 0 -25 28 3 33 l22 4 -22 2 c-28 1 -32 37 -5
44 16 4 16 5 0 6 -15 1 -18 11 -18 66 0 57 2 65 19 65 10 0 21 9 24 20 5 20
11 21 447 20 243 -1 452 -5 465 -10 13 -5 60 -10 104 -12 54 -2 81 -7 81 -15
0 -12 45 -21 118 -25 33 -1 42 -6 42 -20 0 -15 9 -18 65 -18 57 0 65 -2 65
-19 0 -21 26 -31 83 -31 30 0 37 -4 37 -20 0 -17 7 -20 45 -20 38 0 45 -3 45
-20 0 -17 7 -20 43 -21 23 -1 50 -1 60 0 11 2 17 -5 17 -18 0 -18 6 -21 40
-21 33 0 40 -3 40 -20 0 -20 21 -26 72 -22 10 1 17 -2 17 -6 -4 -25 4 -32 41
-32 36 0 40 -2 40 -25 0 -18 5 -25 20 -25 11 0 23 -6 26 -14 3 -8 12 -12 20
-9 8 3 14 0 14 -6 0 -6 11 -11 25 -11 18 0 25 -5 25 -20 0 -17 7 -20 40 -20
33 0 40 -3 40 -20 0 -13 7 -20 20 -20 13 0 20 -7 20 -20 0 -17 7 -20 40 -20
33 0 40 -3 40 -20 0 -15 7 -20 25 -20 20 0 25 -5 25 -25 0 -18 5 -25 20 -25
13 0 20 -7 20 -20 0 -17 7 -20 40 -20 33 0 40 -3 40 -20 0 -13 7 -20 20 -20
13 0 20 -7 20 -20 0 -13 7 -20 20 -20 13 0 20 -7 20 -20 0 -15 7 -20 25 -20
18 0 25 -5 25 -20 0 -13 7 -20 20 -20 15 0 20 -7 20 -25 0 -22 4 -25 40 -25
33 0 40 -3 40 -20 0 -13 7 -20 20 -20 13 0 20 -7 20 -20 0 -13 7 -20 20 -20
13 0 20 -7 20 -20 0 -15 7 -20 25 -20 18 0 25 -5 25 -20 0 -13 7 -20 20 -20
13 0 20 -7 20 -20 0 -13 7 -20 20 -20 15 0 20 -7 20 -25 0 -18 5 -25 20 -25
13 0 20 -7 20 -20 0 -13 7 -20 20 -20 15 0 20 -7 20 -25 0 -14 4 -25 10 -25 5
0 7 -8 3 -17 -5 -15 -3 -14 10 2 16 19 16 19 18 -10 1 -16 1 -33 0 -37 0 -5
10 -8 24 -8 18 0 25 -5 25 -20 0 -13 7 -20 20 -20 15 0 20 -7 20 -25 0 -18 5
-25 20 -25 16 0 20 -7 20 -30 0 -16 5 -30 11 -30 5 0 7 5 3 12 -4 7 -3 8 5 4
6 -4 9 -11 6 -16 -3 -4 2 -13 10 -20 7 -6 11 -18 8 -26 -3 -9 2 -14 16 -14 12
0 21 -6 21 -15 0 -10 7 -15 18 -13 12 2 18 -5 20 -24 3 -22 9 -28 28 -28 19 0
24 -5 24 -25 0 -18 5 -25 20 -25 13 0 20 -7 20 -20 0 -13 7 -20 20 -20 17 0
20 -7 20 -40 0 -33 3 -40 20 -40 13 0 20 -7 20 -20 0 -13 7 -20 20 -20 17 0
20 -7 20 -45 0 -38 3 -45 20 -45 13 0 20 -7 20 -20 0 -15 7 -20 25 -20 23 0
25 -4 25 -40 0 -33 3 -40 20 -40 17 0 20 -7 20 -40 0 -33 3 -40 20 -40 17 0
20 -7 20 -45 0 -38 3 -45 20 -45 17 0 20 -7 20 -40 0 -33 3 -40 20 -40 17 0
20 -7 20 -40 0 -33 3 -40 20 -40 17 0 20 -7 20 -45 0 -41 2 -45 25 -45 23 0
25 -4 25 -40 0 -42 7 -49 29 -27 7 6 12 8 11 2 -2 -5 -2 -29 -1 -53 1 -39 3
-43 21 -37 18 6 20 2 20 -44 0 -44 3 -51 20 -51 18 0 20 -7 20 -60 0 -53 2
-60 20 -60 18 0 20 -7 20 -65 0 -58 2 -65 20 -65 18 0 20 -7 20 -61 0 -70 -13
-67 123 -29 70 20 100 40 84 56 -2 3 -41 -4 -85 -15 -44 -12 -83 -21 -86 -21
-3 0 -10 19 -16 43 -74 288 -271 751 -455 1067 -211 363 -477 706 -774 996
l-96 94 80 1 c44 1 99 2 123 3 41 2 45 -1 137 -92 86 -85 95 -92 95 -68 0 19
-5 26 -20 26 -13 0 -20 7 -20 20 0 13 -7 20 -20 20 -15 0 -20 7 -20 25 0 20
-5 25 -25 25 -18 0 -25 5 -25 20 0 13 -7 20 -20 20 -13 0 -20 7 -20 20 0 13
-7 20 -20 20 -13 0 -20 7 -20 20 0 13 -7 20 -20 20 -13 0 -20 7 -20 20 0 13
-7 20 -20 20 -13 0 -20 7 -20 20 0 15 -7 20 -28 20 -19 0 -38 10 -55 30 -15
17 -32 30 -37 30 -6 0 -10 6 -10 14 0 7 -9 16 -20 19 -11 3 -20 12 -20 21 0 9
-8 16 -20 16 -13 0 -20 7 -20 20 0 13 -7 20 -20 20 -13 0 -20 7 -20 20 0 13
-7 20 -20 20 -13 0 -20 7 -20 20 0 15 -7 20 -25 20 -20 0 -25 5 -25 25 0 18
-5 25 -20 25 -13 0 -20 7 -20 20 0 17 -7 20 -40 20 -29 0 -38 4 -34 13 6 16
34 18 34 3 0 -8 2 -8 8 0 4 6 14 14 22 17 8 4 -3 6 -25 6 -78 -2 -85 0 -85 21
0 13 -7 20 -20 20 -13 0 -20 7 -20 20 0 15 -7 20 -25 20 -18 0 -25 5 -25 20 0
17 -7 20 -40 20 -22 0 -40 5 -40 10 0 6 9 10 20 10 11 0 20 7 20 15 0 8 -5 15
-11 15 -5 0 -7 -6 -3 -12 6 -10 4 -10 -7 0 -7 6 -23 12 -36 12 -13 0 -23 5
-23 10 0 6 9 10 20 10 11 0 20 5 20 10 0 6 -18 10 -40 10 -22 0 -40 4 -40 9 0
5 9 7 20 4 14 -4 20 0 20 11 0 9 -4 16 -10 16 -5 0 -10 5 -10 10 0 11 71 13
119 4 21 -5 31 -12 31 -25 0 -12 7 -19 19 -19 16 0 20 -8 23 -37 2 -29 7 -38
21 -37 12 1 17 -6 17 -27 0 -22 5 -29 20 -29 13 0 20 -7 20 -20 0 -13 7 -20
20 -20 13 0 20 -7 20 -20 0 -15 7 -20 25 -20 18 0 25 -5 25 -20 0 -13 7 -20
20 -20 15 0 20 -7 20 -25 0 -18 5 -25 20 -25 13 0 20 -7 20 -19 0 -11 7 -18
18 -18 88 0 102 -3 102 -23 0 -19 7 -20 150 -20 143 0 150 1 150 20 0 17 7 20
40 20 33 0 40 3 40 20 0 13 7 20 20 20 19 0 20 7 20 125 l0 125 40 0 c33 0 40
-3 40 -20 0 -21 9 -24 59 -14 17 4 31 13 31 20 0 8 9 14 20 14 11 0 20 6 20
14 0 7 9 16 20 19 11 3 20 14 20 24 0 14 7 19 23 19 12 -1 21 4 20 11 -2 7 6
10 17 8 11 -2 24 4 30 13 5 10 10 12 10 5 0 -10 29 -13 109 -13 79 0 111 4
114 13 3 9 7 9 18 0 8 -6 28 -14 44 -17 17 -3 31 -10 33 -16 2 -5 15 -10 28
-10 17 0 24 -6 24 -20 0 -13 7 -20 20 -20 13 0 20 -7 20 -20 0 -13 7 -20 20
-20 13 0 20 -7 20 -20 0 -13 7 -20 20 -20 13 0 20 -7 20 -20 0 -13 7 -20 20
-20 13 0 20 -7 20 -20 0 -20 15 -25 68 -20 17 1 22 -4 22 -24 0 -19 5 -26 20
-26 13 0 20 -7 20 -20 0 -13 7 -20 20 -20 13 0 20 -7 20 -20 0 -13 7 -20 20
-20 13 0 20 -7 20 -20 0 -13 7 -20 20 -20 16 0 20 -7 20 -33 0 -40 8 -51 27
-35 8 6 13 7 12 2 -1 -5 -1 -21 0 -36 1 -23 6 -28 26 -28 18 0 25 -5 25 -20 0
-13 7 -20 20 -20 13 0 20 -7 20 -20 0 -13 7 -20 20 -20 15 0 20 -7 20 -24 0
-19 4 -24 20 -21 17 3 20 -2 20 -36 0 -32 3 -39 20 -39 15 0 20 -7 20 -25 0
-18 5 -25 20 -25 17 0 20 -7 20 -40 0 -36 3 -40 25 -40 18 0 25 -5 25 -20 0
-13 7 -20 20 -20 17 0 20 -7 20 -40 0 -33 3 -40 20 -40 15 0 20 -7 20 -25 0
-18 5 -25 20 -25 17 0 20 -7 20 -40 0 -33 3 -40 20 -40 13 0 20 -7 20 -20 0
-13 7 -20 20 -20 17 0 20 -7 20 -40 0 -36 3 -40 25 -40 20 0 25 -5 25 -25 0
-18 5 -25 20 -25 17 0 20 -7 20 -40 0 -33 3 -40 20 -40 17 0 20 -7 20 -40 0
-33 3 -40 20 -40 17 0 20 -7 20 -45 0 -38 3 -45 20 -45 17 0 20 -7 20 -40 0
-33 3 -40 20 -40 17 0 20 -7 20 -40 0 -36 3 -40 25 -40 23 0 25 -4 25 -45 0
-38 3 -45 19 -45 16 0 20 -8 23 -42 2 -35 6 -42 21 -40 14 2 17 -5 17 -44 0
-41 2 -46 20 -41 10 3 19 2 18 -2 0 -3 0 -32 1 -63 1 -51 3 -58 21 -58 17 0
20 -7 20 -40 0 -33 3 -40 20 -40 18 0 20 -7 20 -65 0 -63 1 -65 25 -65 23 0
25 -3 25 -52 0 -29 5 -70 11 -91 9 -32 7 -41 -10 -64 -27 -34 -26 -79 2 -123
l22 -35 6 60 6 60 1 -62 c2 -54 5 -63 20 -63 13 0 23 -14 34 -50 l16 -50 -36
0 c-86 1 -169 86 -179 185 -4 37 -10 55 -19 55 -10 0 -14 -17 -14 -65 0 -63 1
-65 25 -65 24 0 25 -2 25 -72 0 -44 8 -97 20 -133 l19 -60 0 53 1 52 65 0 c63
0 65 -1 65 -25 0 -34 28 -32 33 3 2 16 5 9 6 -20 1 -41 4 -48 21 -48 17 0 20
-7 20 -50 0 -47 5 -55 33 -51 4 0 6 -2 6 -6 -1 -5 -1 -59 0 -120 l1 -113 25 0
25 0 0 -105 c0 -98 1 -105 20 -105 19 0 20 -7 22 -172 0 -95 1 -182 0 -193 -1
-18 0 -17 12 4 9 17 15 20 21 11 4 -7 2 -16 -6 -21 -10 -6 -11 -9 -1 -9 9 0
12 -93 12 -429 0 -421 0 -430 -20 -436 -19 -6 -20 -15 -20 -151 0 -137 -1
-144 -20 -144 -19 0 -20 -7 -20 -105 l0 -105 -25 0 -25 0 0 -125 c0 -118 -1
-125 -20 -125 -19 0 -20 -7 -20 -104 0 -99 -1 -104 -20 -99 -19 5 -20 0 -20
-66 0 -64 -2 -71 -20 -71 -18 0 -20 -7 -20 -80 0 -73 -2 -80 -20 -80 -17 0
-20 -7 -20 -45 0 -38 -3 -45 -20 -45 -18 0 -20 -7 -20 -60 0 -57 -1 -60 -25
-60 -24 0 -25 -2 -25 -65 0 -58 -2 -65 -20 -65 -17 0 -20 -7 -20 -40 0 -33 -3
-40 -20 -40 -18 0 -20 -7 -20 -56 0 -34 -4 -53 -10 -49 -5 3 -10 0 -10 -7 0
-9 -3 -9 -10 2 -7 11 -10 3 -11 -30 -1 -25 -2 -51 -2 -57 1 -20 -25 -15 -30 5
-3 9 -6 -10 -7 -43 -1 -33 -4 -52 -7 -42 -7 26 -33 2 -33 -29 0 -19 -5 -24
-25 -24 -23 0 -25 -4 -25 -45 0 -38 -3 -45 -20 -45 -17 0 -20 -7 -20 -40 0
-33 -3 -40 -20 -40 -13 0 -20 -7 -20 -20 0 -10 -9 -24 -20 -30 -13 -7 -20 -21
-20 -40 0 -23 -4 -30 -20 -30 -16 0 -20 -7 -20 -31 0 -17 -7 -37 -15 -45 -8
-9 -15 -12 -15 -7 0 5 5 14 12 21 9 9 8 12 -5 12 -13 0 -17 -9 -17 -40 0 -36
-2 -40 -25 -40 -17 0 -25 -6 -25 -17 0 -10 -5 -25 -11 -33 -8 -13 -9 -12 -7 4
2 13 -4 20 -20 21 -20 2 -21 0 -7 -15 14 -16 14 -18 0 -24 -24 -9 -32 -7 -15
4 8 5 11 13 6 17 -4 4 -237 10 -517 13 -400 4 -511 8 -518 18 -4 7 -15 10 -23
7 -23 -9 -20 44 3 74 11 13 19 32 19 41 0 10 9 20 20 23 11 3 20 11 20 18 0
10 -3 10 -12 1 -16 -16 -28 -15 -28 3 0 8 9 15 20 15 16 0 20 7 20 35 0 21 5
35 13 35 8 0 7 4 -3 10 -12 8 -11 10 8 10 22 0 27 15 23 63 -2 12 5 17 23 17
24 0 26 4 26 40 0 33 3 40 20 40 13 0 20 7 20 20 0 13 7 20 20 20 17 0 20 7
21 48 1 26 1 55 0 65 -2 11 5 17 18 17 18 0 21 6 21 40 0 33 3 40 20 40 17 0
20 7 20 45 0 38 3 45 20 45 17 0 20 7 20 40 0 36 3 40 25 40 24 0 25 3 25 63
0 44 3 58 10 47 7 -11 10 -11 10 -2 0 7 5 10 10 7 6 -4 10 13 10 44 0 44 3 51
20 51 18 0 20 7 20 80 0 73 2 80 20 80 17 0 20 7 20 45 0 37 3 45 19 45 11 0
18 7 18 18 0 164 3 192 23 192 18 0 20 7 20 60 0 57 1 60 25 60 25 0 25 0 26
98 1 53 1 100 0 105 0 4 8 7 19 7 19 0 20 6 19 123 l0 122 -24 -115 c-80 -386
-194 -716 -370 -1075 -51 -104 -119 -233 -150 -286 -54 -91 -59 -96 -91 -96
-19 0 -34 3 -34 6 0 3 -24 6 -54 6 -30 0 -52 -3 -50 -6 2 -3 -3 -15 -11 -25
-10 -14 -17 -16 -25 -8 -9 9 -9 14 1 19 8 5 10 4 5 -3 -4 -7 -2 -12 3 -12 6 0
10 10 10 23 -1 12 33 81 75 152 72 121 152 276 196 380 19 45 19 45 0 45 -17
0 -20 -7 -20 -40 0 -36 -2 -40 -25 -40 -20 0 -25 -5 -25 -25 0 -21 -5 -25 -31
-25 l-32 0 27 -21 c14 -11 26 -25 26 -30 0 -5 -27 -22 -60 -39 -120 -61 -326
-208 -439 -314 -30 -28 -50 -45 -46 -38 4 8 2 13 -6 11 -8 -1 -21 -1 -29 0
-13 1 -13 2 0 11 10 7 11 10 3 11 -7 1 -17 2 -23 3 -5 0 -17 12 -27 26 l-17
24 -7 -24 c-6 -22 -7 -21 -9 10 -1 19 -4 29 -7 22 -4 -10 -8 -9 -17 4 -11 14
-5 36 37 133 91 214 158 413 145 427 -14 14 -28 -9 -28 -47 0 -32 -3 -39 -20
-39 -18 0 -20 -7 -20 -65 0 -58 -2 -65 -20 -65 -17 0 -20 -7 -20 -40 0 -33 -3
-40 -20 -40 -17 0 -20 -7 -20 -41 l0 -40 -42 3 c-42 3 -43 4 -46 41 -3 33 -1
37 20 38 21 1 21 2 3 7 -29 10 -29 32 0 32 24 0 25 3 25 56 0 34 -4 53 -10 49
-5 -3 -10 3 -10 14 0 14 -5 19 -14 15 -11 -4 -15 4 -14 35 0 36 3 41 24 41
l24 0 0 329 c0 187 -4 332 -9 335 -5 4 -7 -4 -4 -16 4 -20 3 -21 -9 -7 -11 13
-13 -23 -14 -220 -1 -254 -15 -406 -60 -643 -15 -76 -30 -138 -35 -138 -5 0
-9 11 -9 24 0 19 -4 23 -20 19 -18 -5 -20 0 -20 36 0 34 -3 41 -20 41 -15 0
-20 7 -20 25 0 20 -5 25 -25 25 -23 0 -25 4 -25 40 0 33 -3 40 -17 38 -12 -2
-19 4 -21 20 -2 12 -10 22 -18 22 -10 0 -13 6 -10 18 3 9 10 46 16 82 7 36 15
74 20 85 9 21 30 86 30 91 0 2 -7 4 -15 4 -11 0 -15 -11 -15 -40 0 -33 -3 -40
-20 -40 -16 0 -20 -7 -21 -37 0 -21 -3 -32 -6 -25 -11 27 -33 12 -34 -25 -2
-31 -3 -33 -6 -10 -5 33 -33 37 -33 4 0 -13 43 -110 95 -216 52 -106 95 -194
95 -195 0 -2 79 -164 175 -361 96 -196 175 -359 175 -361 0 -2 -144 -3 -320
-2 l-320 3 -216 440 c-119 242 -220 450 -225 463 l-9 22 -2573 0 -2574 0 -46
-97 c-25 -54 -127 -263 -226 -465 l-181 -368 -319 0 -320 0 24 52 c12 29 60
127 105 218 100 199 385 789 410 845 14 33 15 43 4 52 -10 10 -13 8 -16 -8 -5
-31 -22 -23 -29 13 -4 18 -7 25 -8 15 -2 -38 -26 -9 -29 36 -3 52 -11 59 -28
22 -9 -18 -9 -39 2 -87 7 -35 10 -82 7 -105 -5 -39 -12 -48 -35 -44 -5 0 -8
-12 -8 -29 0 -23 -4 -30 -20 -30 -16 0 -20 -7 -20 -36 0 -31 -3 -36 -20 -31
-17 4 -20 0 -20 -29 0 -27 -4 -34 -20 -34 -14 0 -20 -7 -20 -24 0 -15 -7 -26
-20 -29 -11 -3 -20 -4 -20 -2 0 1 -9 47 -20 101 -43 217 -77 600 -68 772 5 82
3 93 -11 90 -14 -3 -16 -36 -19 -296 -2 -280 -2 -292 17 -292 16 0 19 -8 20
-65 1 -46 -2 -65 -11 -65 -9 0 -8 -3 2 -10 13 -8 13 -10 -2 -10 -9 0 -19 6
-21 13 -3 6 -6 -25 -6 -70 -1 -77 1 -83 19 -83 16 0 20 -7 20 -35 0 -40 -21
-55 -47 -34 -14 12 -16 12 -8 -1 8 -13 7 -13 -8 -1 -12 9 -17 28 -17 62 0 42
-3 49 -20 49 -14 0 -20 7 -20 24 0 19 -4 23 -20 19 -19 -5 -20 0 -20 61 0 59
-2 66 -20 66 -17 0 -20 7 -20 40 0 30 -4 40 -16 40 -12 0 -14 -7 -9 -33 4 -17
13 -44 20 -59 7 -15 17 -42 20 -60 8 -34 72 -196 123 -310 30 -67 27 -102 -10
-111 -10 -3 -18 -12 -18 -21 0 -10 -8 -16 -21 -16 -15 0 -19 -5 -15 -16 3 -8
2 -12 -3 -9 -5 3 -12 1 -16 -4 -13 -22 -48 -3 -137 72 -100 85 -326 240 -396
271 -48 22 -55 46 -20 70 22 16 22 16 -15 16 -33 0 -37 3 -37 25 0 18 -5 25
-20 25 -17 0 -20 7 -20 40 0 29 -4 40 -15 40 -8 0 -15 -5 -15 -12 0 -22 139
-299 214 -426 72 -122 88 -162 66 -162 -5 0 -10 6 -10 14 0 9 -17 14 -62 15
-33 1 -65 4 -69 7 -4 2 -10 0 -13 -5 -4 -5 -2 -12 4 -16 5 -3 10 -11 10 -16 0
-6 -7 -4 -15 4 -8 9 -18 17 -23 19 -10 4 -95 146 -164 278 -135 254 -272 600
-351 885 -33 117 -87 366 -87 399 0 30 -8 36 -35 25 -19 -7 -19 -8 3 -8 21 -1
22 -4 22 -106 0 -99 1 -105 21 -105 13 0 20 -6 18 -17 -1 -10 -1 -57 0 -105 1
-81 3 -88 21 -88 18 0 20 -7 20 -80 0 -79 0 -80 25 -80 25 0 25 -1 25 -85 0
-78 2 -85 20 -85 18 0 20 -7 20 -65 0 -58 2 -65 20 -65 18 0 20 -7 20 -60 0
-53 2 -60 20 -60 18 0 20 -7 20 -65 0 -58 2 -65 20 -65 18 0 20 -7 20 -60 0
-53 2 -60 20 -60 17 0 20 -7 20 -40 0 -36 3 -40 25 -40 23 0 25 -4 25 -45 0
-38 3 -45 20 -45 17 0 20 -7 20 -40 0 -33 3 -40 20 -40 17 0 20 -7 20 -40 0
-33 3 -40 20 -40 17 0 20 -7 20 -45 0 -38 3 -45 20 -45 17 0 20 -7 20 -40 0
-33 3 -40 20 -40 17 0 20 -7 20 -40 0 -36 3 -40 25 -40 23 0 25 -4 25 -45 0
-38 3 -45 20 -45 17 0 20 -7 21 -52 0 -29 3 -47 6 -40 5 13 33 17 33 4 0 -4
-5 -13 -12 -20 -9 -9 -9 -12 0 -12 7 0 12 -9 12 -20 0 -14 7 -20 23 -21 16 -1
18 -2 4 -6 -9 -2 -17 -9 -17 -14 0 -5 -9 -9 -20 -9 -11 0 -20 5 -20 10 0 6 -4
10 -10 10 -5 0 -10 -7 -10 -15 0 -13 -68 -15 -555 -15 -439 0 -556 3 -554 12
3 28 -2 38 -21 38 -11 0 -19 3 -19 8 5 32 -3 52 -21 52 -16 0 -20 7 -20 35 0
28 -4 35 -20 35 -16 0 -20 7 -20 30 0 23 -4 30 -20 30 -17 0 -20 7 -20 40 0
36 -2 40 -25 40 -18 0 -25 5 -25 20 0 13 -7 20 -20 20 -17 0 -20 7 -20 45 0
38 -3 45 -20 45 -17 0 -20 7 -20 45 0 25 -3 44 -7 44 -28 -5 -33 4 -33 56 0
59 -5 65 -27 38 -11 -14 -13 -15 -12 -3 1 8 1 36 0 63 -1 40 -4 47 -21 47 -17
0 -20 7 -20 40 0 36 -2 40 -25 40 -24 0 -25 2 -25 65 0 58 -2 65 -20 65 -18 0
-20 7 -20 55 0 48 -3 55 -17 53 -15 -3 -19 7 -24 62 -3 36 -6 60 -7 53 -1 -7
-9 -10 -17 -7 -11 5 -15 21 -15 60 0 47 -2 54 -20 54 -18 0 -20 7 -20 85 0 78
-2 85 -20 85 -18 0 -20 7 -20 80 0 78 -1 80 -25 80 -24 0 -24 1 -27 103 -2 83
-6 102 -18 102 -12 0 -16 20 -18 108 -2 99 -4 107 -22 107 -19 0 -20 7 -20
125 0 118 -1 125 -20 125 -11 0 -19 3 -19 8 1 4 1 116 0 250 -1 241 -1 242
-23 242 -21 0 -21 0 -15 -172 46 -1235 479 -2447 1228 -3438 204 -270 328
-410 610 -693 148 -147 267 -267 266 -268 -1 0 -10 -2 -20 -4 -14 -3 -16 -1
-7 10 10 12 -46 14 -364 15 -298 0 -376 -2 -376 -12 0 -9 -3 -9 -10 2 -5 8
-12 11 -16 7 -4 -4 -14 -2 -23 5 -30 21 263 -267 364 -357 55 -50 143 -126
195 -169 52 -44 100 -85 105 -92 19 -24 304 -233 451 -332 405 -270 823 -488
1299 -675 902 -354 1936 -518 2858 -452 961 69 1774 289 2599 701 109 55 223
112 255 128 32 15 60 31 63 35 3 3 30 19 60 35 204 109 685 441 835 576 17 15
95 83 175 151 145 125 450 416 450 430 0 5 -7 5 -17 2 -11 -4 -14 -3 -9 5 4 7
3 12 -3 12 -5 0 -12 -6 -14 -12 -4 -10 -6 -10 -6 0 -1 9 -76 12 -341 12 -265
0 -340 -3 -340 -12 0 -10 -3 -9 -9 1 -7 11 -9 11 -14 0 -3 -11 -7 -11 -17 -2
-11 10 9 33 101 120 496 466 859 924 1184 1492 372 651 627 1392 734 2136 83
573 87 1217 11 1745 -90 622 -223 1093 -471 1670 -44 101 -185 384 -263 523
-42 76 -76 142 -76 147 0 4 -6 11 -12 13 -10 4 -10 6 0 6 7 1 11 5 8 9 -2 4 4
8 15 8 10 0 19 -4 19 -8 0 -4 -8 -8 -17 -8 -15 0 -16 -2 -3 -10 9 -6 19 -5 28
2 10 9 12 8 10 -3 -3 -12 42 -14 280 -17 192 -1 289 1 300 9 15 9 15 10 1 6
-12 -4 -15 -1 -13 11 6 22 -138 272 -290 502 -432 655 -945 1202 -1576 1679
-80 61 -150 115 -157 121 -7 5 -14 10 -17 10 -8 0 -171 114 -174 122 -2 4 -7
8 -12 8 -4 0 -73 41 -154 90 -468 289 -931 503 -1453 674 -361 118 -857 234
-1113 260 -25 3 -60 8 -79 12 -27 6 -32 4 -26 -6 6 -10 4 -11 -6 -4 -8 5 -22
7 -33 5 -11 -1 -16 2 -12 8 5 7 -9 11 -41 12 -26 0 -63 2 -80 3 -23 3 -33 -1
-33 -10 0 -8 -4 -14 -9 -14 -12 0 -32 26 -25 33 3 3 -4 3 -15 0 -12 -3 -24 -9
-27 -14 -3 -5 3 -6 13 -3 16 5 16 4 -1 -6 -13 -9 -20 -9 -25 -2 -3 6 -18 12
-31 14 -14 2 -35 9 -47 16 -31 17 -40 15 -17 -4 15 -12 16 -15 2 -10 -9 3 -19
0 -21 -7 -3 -8 -11 -6 -26 8 -22 19 -23 19 -36 2 -11 -15 -17 -17 -35 -7 -12
7 -19 18 -16 26 3 8 3 14 0 14 -3 0 -8 -9 -11 -20z m-1089 -39 c4 -5 -3 -7
-14 -4 -23 6 -26 13 -6 13 8 0 17 -4 20 -9z m1106 -1 c12 -8 10 -9 -7 -7 -12
2 -26 6 -29 10 -11 11 19 8 36 -3z m410 0 c0 -5 -5 -10 -11 -10 -5 0 -7 5 -4
10 3 6 8 10 11 10 2 0 4 -4 4 -10z m30 6 c0 -3 -4 -8 -10 -11 -5 -3 -10 -1
-10 4 0 6 5 11 10 11 6 0 10 -2 10 -4z m-283 -12 c-3 -3 -12 -4 -19 -1 -8 3
-5 6 6 6 11 1 17 -2 13 -5z m-585 -970 l3 -215 146 208 146 208 123 3 123 3
-6 -143 c-4 -79 -7 -261 -7 -405 l0 -263 -120 0 -120 0 -2 213 -3 214 -145
-206 -145 -206 -124 -3 -124 -3 6 233 c4 128 7 311 7 406 l0 172 120 0 120 0
2 -216z m-697 -233 c48 -210 83 -387 78 -391 -4 -4 -49 -17 -100 -27 l-91 -20
-20 86 c-11 47 -39 173 -63 279 -26 114 -46 187 -51 179 -4 -8 -8 -108 -9
-223 -1 -115 -4 -243 -8 -284 l-6 -74 -75 -18 c-41 -9 -82 -17 -90 -17 -10 0
-63 94 -150 264 -74 145 -135 263 -137 262 -2 -2 83 -383 122 -544 5 -20 -2
-23 -91 -43 -53 -12 -99 -18 -104 -14 -9 10 -184 774 -178 779 1 1 68 17 148
35 80 18 150 35 157 37 6 3 58 -86 125 -215 l113 -220 10 246 10 246 155 37
c85 20 158 34 161 30 4 -3 46 -179 94 -390z m1891 343 c60 -14 110 -26 111
-28 2 -2 -10 -60 -27 -129 -42 -178 -40 -211 20 -242 34 -18 119 -20 154 -4
20 10 27 26 46 108 29 129 48 202 53 207 3 4 201 -39 234 -51 8 -3 8 -19 -4
-62 -18 -68 -102 -427 -139 -593 -14 -63 -29 -119 -34 -123 -6 -7 -228 38
-238 48 -2 2 10 65 27 141 18 75 30 138 29 140 -2 1 -32 -1 -68 -5 -122 -15
-217 9 -290 76 -90 80 -98 150 -45 382 19 83 35 154 35 157 0 8 30 4 136 -22z
m1400 -460 c159 -74 293 -139 297 -143 4 -4 -8 -42 -27 -84 l-35 -76 -98 45
c-54 26 -139 65 -189 89 l-91 42 -27 -54 c-15 -31 -26 -57 -24 -58 2 -2 73
-36 158 -75 85 -40 163 -76 172 -81 15 -8 14 -15 -14 -77 -17 -37 -34 -70 -38
-75 -3 -4 -82 29 -174 73 -92 44 -171 80 -174 80 -4 0 -21 -31 -38 -69 l-31
-69 189 -88 c104 -49 191 -91 194 -95 2 -3 -14 -43 -36 -87 l-39 -81 -138 65
c-76 37 -210 100 -298 141 -88 40 -164 78 -169 83 -9 9 322 729 335 730 4 0
136 -61 295 -136z m-4686 -26 c0 -4 -83 -47 -185 -97 -102 -49 -185 -92 -185
-96 0 -3 11 -28 25 -55 l25 -49 33 14 c19 8 94 43 167 79 73 37 138 66 145 66
10 0 80 -139 73 -146 -2 -1 -78 -38 -170 -83 -93 -44 -168 -85 -168 -91 0 -11
58 -130 64 -130 1 0 87 41 189 90 103 50 189 90 192 90 3 0 23 -36 45 -79 29
-59 36 -81 27 -88 -7 -5 -77 -40 -157 -78 -80 -38 -212 -102 -294 -142 -82
-40 -150 -72 -152 -71 -1 2 -28 57 -60 123 -31 66 -109 229 -174 362 l-118
241 302 146 301 146 37 -73 c20 -39 37 -75 38 -79z m-964 -668 c103 -132 191
-240 196 -240 5 0 22 10 38 22 16 12 31 20 33 17 70 -82 216 -283 210 -289 -4
-4 -40 -32 -80 -63 l-72 -57 -54 70 -54 70 -194 -151 c-107 -83 -197 -154
-201 -158 -4 -3 17 -37 47 -75 l55 -68 -77 -59 c-42 -32 -80 -59 -84 -59 -9 0
-219 268 -219 280 0 5 13 18 29 30 30 21 30 21 15 63 -39 111 -122 250 -238
396 -36 47 -65 89 -63 94 2 8 514 414 524 416 1 1 86 -107 189 -239z m6578
143 c61 -24 169 -97 211 -144 58 -64 89 -141 89 -219 0 -36 -6 -81 -13 -101
l-12 -37 -100 47 -101 46 6 37 c16 102 -86 195 -184 168 -85 -23 -200 -170
-207 -263 -3 -40 1 -60 16 -84 23 -36 87 -73 126 -73 28 0 79 23 107 47 9 8
21 12 27 9 6 -4 38 -45 72 -93 l63 -86 -25 -20 c-40 -33 -126 -68 -181 -74
-131 -13 -335 116 -409 259 -34 65 -38 183 -9 267 53 157 191 297 327 331 48
12 144 3 197 -17z m-4586 -510 c-10 -2 -26 -2 -35 0 -10 3 -2 5 17 5 19 0 27
-2 18 -5z m762 -87 c0 -3 -4 -8 -10 -11 -5 -3 -10 -1 -10 4 0 6 5 11 10 11 6
0 10 -2 10 -4z m820 -210 c0 -3 -4 -8 -10 -11 -5 -3 -10 -1 -10 4 0 6 5 11 10
11 6 0 10 -2 10 -4z m-3371 -23 c-21 -3 -26 -9 -22 -24 4 -14 0 -19 -16 -19
-24 0 -27 10 -8 29 10 11 10 13 0 7 -7 -4 -13 -2 -13 3 0 6 18 10 43 10 27 -1
33 -3 16 -6z m-689 -33 c0 -5 -4 -10 -10 -10 -5 0 -10 5 -10 10 0 6 5 10 10
10 6 0 10 -4 10 -10z m581 -32 l2 -23 4 23 c6 31 33 29 33 -3 0 -19 -5 -25
-21 -25 -16 0 -20 -5 -16 -20 4 -16 0 -20 -19 -20 -17 0 -24 -6 -24 -20 0 -18
-6 -20 -62 -19 -35 1 -53 4 -40 6 14 3 22 12 22 24 0 12 7 19 20 19 13 0 20 7
20 20 0 13 7 20 20 20 13 0 20 7 20 20 0 30 40 27 41 -2z m2526 -210 c-3 -8
-6 -5 -6 6 -1 11 2 17 5 13 3 -3 4 -12 1 -19z m-4792 -488 c-3 -5 -12 -10 -18
-10 -7 0 -6 4 3 10 19 12 23 12 15 0z m11192 -1522 c-3 -8 -6 -5 -6 6 -1 11 2
17 5 13 3 -3 4 -12 1 -19z m0 -40 c-3 -8 -6 -5 -6 6 -1 11 2 17 5 13 3 -3 4
-12 1 -19z m-7349 -3754 c-7 -6 -33 -12 -60 -13 -25 -1 -23 -21 2 -21 11 0 20
-4 20 -10 0 -5 -9 -10 -20 -10 -13 0 -20 -7 -20 -20 0 -13 -7 -20 -20 -20 -13
0 -20 -7 -20 -20 0 -13 -7 -20 -20 -20 -13 0 -20 -7 -20 -20 0 -13 -7 -20 -20
-20 -13 0 -20 -7 -20 -20 0 -13 -7 -20 -20 -20 -15 0 -20 -7 -20 -25 0 -20 -5
-25 -25 -25 -18 0 -25 -5 -25 -20 0 -13 -7 -20 -20 -20 -18 0 -20 -7 -20 -59
0 -50 -3 -59 -17 -57 -16 1 -18 -12 -21 -126 -2 -123 -2 -128 18 -128 13 0 20
-7 20 -20 0 -18 7 -20 75 -20 58 0 75 3 75 14 0 8 -6 17 -12 19 -8 3 -6 6 5 6
9 1 17 -5 18 -11 0 -10 2 -10 6 0 2 6 13 12 24 12 14 0 19 -7 19 -25 0 -16 -6
-25 -15 -25 -8 0 -15 -4 -15 -10 0 -5 -10 -10 -22 -10 -19 0 -20 2 -8 10 11 7
5 10 -22 10 -21 0 -38 -4 -38 -8 0 -5 -16 -8 -35 -8 -19 1 -35 4 -35 9 0 13
-51 7 -67 -9 -14 -13 -63 -15 -401 -12 -297 2 -386 6 -390 16 -2 7 -21 12 -47
12 -38 0 -43 2 -40 20 2 11 7 25 10 30 3 6 1 10 -4 10 -6 0 -11 18 -11 40 0
36 3 40 25 40 25 0 25 1 25 85 0 81 1 85 23 86 l22 2 -22 4 c-27 5 -31 33 -5
33 14 0 15 -2 2 -10 -13 -8 -12 -10 3 -10 14 0 17 9 17 55 0 48 2 55 20 55 11
0 20 4 20 9 0 5 -9 7 -20 4 -14 -4 -20 0 -20 11 0 9 8 16 20 16 17 0 20 7 20
40 0 33 3 40 20 40 17 0 20 7 20 40 0 33 3 40 20 40 15 0 20 7 20 25 0 18 5
25 20 25 13 0 20 7 20 20 0 20 7 20 507 20 278 0 504 -3 501 -6z m712 -4 c0
-5 -18 -10 -40 -10 -22 0 -40 -4 -40 -10 0 -5 9 -10 20 -10 11 0 20 -4 20 -10
0 -5 -18 -10 -40 -10 -29 0 -40 -4 -40 -15 0 -13 35 -15 259 -15 214 0 261 -2
271 -15 10 -12 0 -15 -72 -18 l-83 -3 91 -2 c62 -1 95 -6 103 -15 6 -8 7 -18
3 -22 -4 -5 -2 -5 5 -1 7 4 17 -2 23 -14 8 -14 8 -20 0 -20 -6 0 -8 -5 -5 -10
4 -6 10 -8 15 -5 5 3 11 2 14 -3 7 -11 -26 -12 -40 0 -6 4 -19 5 -28 2 -11 -4
-16 -2 -14 7 3 15 -14 18 -59 8 -19 -4 -36 -2 -44 5 -9 8 -10 8 -5 -1 3 -6 2
-14 -4 -18 -5 -3 -10 -2 -10 3 0 5 -25 17 -56 27 -38 12 -54 22 -50 31 3 8 0
11 -9 7 -8 -3 -12 -10 -9 -15 6 -10 -62 -9 -80 1 -17 8 -55 7 -49 -2 3 -5 14
-7 24 -4 34 9 20 -9 -18 -22 -21 -8 -41 -18 -44 -23 -9 -14 -69 -21 -69 -9 0
6 8 11 17 11 14 0 15 2 4 13 -11 10 -14 10 -18 0 -3 -7 -21 -13 -42 -13 -20 0
-43 -6 -49 -12 -10 -10 -15 -10 -21 1 -5 7 -7 21 -6 30 2 9 4 20 4 25 1 4 10
6 22 3 16 -4 18 -3 9 9 -10 11 -7 16 14 25 35 16 33 29 -4 29 -23 0 -30 -4
-30 -20 0 -13 -7 -20 -20 -20 -13 0 -20 -7 -20 -20 0 -15 -7 -20 -25 -20 -21
0 -25 -5 -25 -31 0 -26 -3 -29 -20 -24 -11 4 -20 2 -20 -4 0 -6 8 -12 18 -12
16 -1 16 -2 0 -6 -11 -3 -18 -14 -18 -29 0 -17 -5 -24 -20 -24 -18 0 -20 -7
-20 -60 0 -33 -4 -60 -10 -60 -5 0 -10 5 -10 10 0 6 -4 10 -10 10 -6 0 -9 -3
-9 -7 1 -5 1 -45 0 -90 -1 -76 -3 -83 -21 -83 -19 0 -20 7 -20 103 0 70 -3 97
-10 87 -21 -32 -30 17 -30 178 l0 162 -25 0 c-14 0 -25 5 -25 10 0 6 11 10 25
10 14 0 25 5 25 10 0 6 -11 11 -25 11 -37 2 -43 3 -51 12 -4 4 113 7 259 7
171 0 267 -4 267 -10z m960 0 c0 -5 -18 -10 -40 -10 -22 0 -40 -4 -40 -10 0
-5 9 -10 20 -10 11 0 20 -4 20 -10 0 -5 -9 -10 -20 -10 -13 0 -20 -7 -20 -20
0 -13 -7 -20 -19 -20 -16 0 -20 -8 -23 -42 -2 -30 -8 -43 -18 -43 -10 0 -16
-13 -18 -42 -3 -38 -1 -43 17 -43 14 0 21 -6 21 -20 0 -17 7 -20 40 -20 33 0
40 -3 40 -20 0 -13 7 -20 20 -20 13 0 20 -7 20 -20 0 -13 -7 -20 -20 -20 -18
0 -20 -7 -20 -55 0 -48 -2 -55 -20 -55 -11 0 -20 -4 -20 -10 0 -5 9 -10 20
-10 11 0 20 -4 20 -10 0 -5 -9 -10 -20 -10 -11 0 -20 -4 -20 -10 0 -5 9 -10
20 -10 11 0 20 -7 20 -15 0 -8 -6 -15 -12 -15 -9 0 -8 -4 2 -11 12 -8 10 -9
-7 -4 -19 5 -23 2 -23 -14 0 -14 -6 -21 -20 -21 -13 0 -20 -7 -20 -20 0 -13
-7 -20 -20 -20 -13 0 -20 -7 -20 -19 0 -12 -10 -21 -27 -25 -16 -4 -36 -9 -45
-12 -15 -4 -18 1 -18 31 0 29 -4 35 -17 33 -16 -3 -18 10 -21 126 -2 118 -4
128 -22 133 -17 4 -20 14 -20 54 0 42 -3 49 -20 49 -17 0 -20 7 -20 45 0 38
-3 45 -20 45 -13 0 -20 7 -20 20 0 15 -7 20 -25 20 -18 0 -25 5 -25 20 0 13
-7 20 -20 20 -13 0 -20 7 -20 20 0 13 -7 20 -20 20 -13 0 -20 7 -20 20 0 17
-7 20 -40 20 -22 0 -40 5 -40 10 0 6 9 10 20 10 11 0 20 5 20 10 0 6 -18 10
-40 10 -22 0 -40 5 -40 10 0 6 117 10 330 10 213 0 330 -4 330 -10z m1130 0
c0 -5 -20 -10 -45 -10 -25 0 -45 -4 -45 -10 0 -5 11 -10 25 -10 14 0 25 -4 25
-10 0 -5 -20 -10 -45 -10 -38 0 -45 -3 -45 -20 0 -13 -7 -20 -20 -20 -13 0
-20 -7 -20 -20 0 -13 -7 -20 -20 -20 -13 0 -20 -7 -20 -20 0 -13 -7 -20 -20
-20 -13 0 -20 -7 -20 -20 0 -13 -7 -20 -20 -20 -17 0 -20 -7 -20 -45 0 -41 -2
-45 -25 -45 -23 0 -25 -3 -25 -48 0 -36 -5 -51 -20 -62 -18 -13 -20 -26 -20
-116 0 -102 -5 -134 -20 -134 -5 0 -12 9 -15 21 -5 15 -10 17 -19 10 -14 -11
-26 -5 -26 13 0 6 5 4 10 -4 6 -9 10 -10 10 -3 0 6 -4 15 -10 18 -5 3 -10 28
-10 55 0 42 -3 48 -17 43 -11 -4 -14 -3 -9 5 4 7 2 12 -3 12 -6 0 -11 16 -11
35 0 28 -4 35 -20 35 -13 0 -20 7 -20 20 0 15 -7 20 -25 20 -18 0 -25 5 -25
20 0 13 -7 20 -20 20 -17 0 -20 7 -20 40 0 33 3 40 20 40 15 0 20 7 20 25 0
20 5 25 25 25 23 0 25 4 25 40 0 33 3 40 20 40 17 0 20 7 20 40 0 33 -3 40
-20 40 -11 0 -20 5 -20 10 0 6 9 10 20 10 11 0 20 5 20 10 0 6 -8 10 -17 10
-10 0 -25 5 -33 10 -10 6 81 10 268 10 181 0 282 -4 282 -10z m1140 1 c-8 -6
-18 -7 -22 -5 -4 3 -8 -2 -8 -10 0 -12 10 -16 40 -16 33 0 40 -3 40 -20 0 -12
-7 -20 -17 -21 -17 -1 -17 -2 0 -6 9 -2 17 -13 17 -24 0 -14 7 -19 25 -19 23
0 25 -4 25 -40 0 -33 3 -40 20 -40 25 0 27 -30 3 -31 -17 -1 -17 -2 0 -6 13
-3 17 -15 17 -49 0 -37 3 -44 20 -44 18 0 20 -7 20 -60 0 -53 2 -60 20 -60 25
0 27 -30 3 -31 -17 -1 -17 -2 0 -6 15 -4 17 -18 17 -119 0 -114 0 -114 -24
-114 -33 0 -57 -10 -50 -21 3 -5 -104 -9 -255 -9 -225 0 -262 2 -276 16 -12
13 -19 14 -30 4 -13 -11 -15 -8 -15 18 0 16 -7 43 -15 58 -10 20 -15 23 -15
12 0 -10 -4 -18 -10 -18 -6 0 -10 47 -10 120 0 66 -3 119 -7 119 -25 -4 -32 5
-35 44 -2 34 -6 41 -20 39 -15 -2 -18 5 -18 36 0 31 -4 41 -20 45 -16 4 -20
14 -20 46 0 34 -3 41 -20 41 -13 0 -20 7 -20 20 0 13 -7 20 -20 20 -13 0 -20
7 -20 20 0 17 -6 20 -42 19 -33 0 -38 -2 -23 -9 13 -6 -15 -9 -80 -9 -65 0
-93 3 -80 9 12 5 -34 8 -120 8 -77 -1 -125 -3 -107 -5 18 -2 30 -8 28 -12 -6
-9 7 -10 222 -10 191 0 190 0 183 -43 0 -4 5 -5 13 -2 7 3 16 -3 20 -13 3 -10
9 -24 12 -30 4 -9 -6 -13 -34 -13 -22 0 -42 4 -44 8 -1 5 -29 12 -61 16 -41 4
-56 3 -52 -5 4 -5 13 -8 19 -6 7 3 13 -1 13 -8 0 -14 -126 48 -139 68 -5 8 -8
9 -8 1 0 -14 -80 -16 -97 -2 -7 6 -14 5 -19 -3 -4 -8 -3 -9 4 -5 7 4 12 3 12
-2 0 -9 -47 -27 -62 -24 -5 1 -8 -2 -8 -7 0 -5 -10 -7 -22 -5 -13 2 -17 2 -10
-2 16 -7 6 -24 -15 -24 -9 0 -13 6 -10 14 5 12 -3 14 -46 9 -29 -3 -60 -10
-69 -14 -22 -12 -28 -11 -28 1 0 6 3 9 8 9 19 -3 33 2 28 10 -3 5 -16 7 -29 4
-18 -4 -19 -3 -7 6 8 6 11 11 6 11 -5 0 1 11 14 25 13 14 29 25 37 25 7 0 12
3 12 8 -5 31 1 32 266 32 229 0 265 2 265 15 0 11 -11 15 -40 15 -22 0 -40 5
-40 10 0 6 9 10 20 10 11 0 20 5 20 10 0 6 -18 10 -40 10 -22 0 -40 5 -40 10
0 7 151 10 433 10 266 0 426 -4 417 -9z m-3760 -136 c0 -36 -5 -57 -12 -60 -7
-2 -69 -6 -138 -9 -136 -5 -158 -7 -180 -21 -8 -5 0 10 18 33 19 23 38 40 42
37 5 -3 12 0 16 6 4 8 3 9 -4 5 -7 -4 -12 -3 -12 3 0 6 9 15 20 21 11 6 20 17
20 25 0 12 21 15 115 15 l115 0 0 -55z m1977 48 c-9 -2 -15 -9 -12 -14 4 -5
-46 -8 -122 -7 l-128 2 105 6 c87 5 70 6 -102 8 -123 1 -208 -2 -208 -7 0 -5
-10 -12 -22 -14 -13 -3 28 -5 89 -5 63 0 110 4 107 9 -7 12 20 11 32 -1 5 -5
60 -11 123 -12 l113 -3 -30 -34 c-20 -23 -34 -31 -43 -26 -11 7 -10 4 1 -10
14 -17 14 -18 -8 -6 -13 7 -26 10 -30 7 -3 -3 0 -6 6 -6 7 0 12 -4 12 -10 0
-10 -21 -10 -30 1 -3 3 -27 9 -53 11 -35 4 -46 3 -38 -5 15 -15 14 -30 -1 -20
-18 11 -39 13 -33 3 3 -5 2 -11 -3 -14 -4 -2 -8 4 -9 14 -1 10 5 21 13 24 8 3
14 12 14 21 0 11 -11 15 -37 16 -31 0 -34 2 -18 9 19 8 19 9 -2 9 -13 1 -23
-3 -23 -9 0 -5 -11 -9 -25 -8 -14 1 -25 6 -25 10 0 4 -5 8 -11 8 -5 0 -8 -4
-5 -8 2 -4 -10 -8 -29 -8 -19 0 -31 4 -28 10 3 5 1 6 -5 2 -20 -12 -51 -15
-57 -5 -4 5 -12 9 -18 9 -8 0 -8 -3 2 -9 9 -6 5 -8 -13 -8 -28 0 -29 -1 18 54
20 23 20 23 285 22 146 -1 258 -3 248 -6z m-379 -20 c-16 -2 -40 -2 -55 0 -16
2 -3 4 27 4 30 0 43 -2 28 -4z m65 0 c-7 -2 -19 -2 -25 0 -7 3 -2 5 12 5 14 0
19 -2 13 -5z m1166 3 c-6 -7 -138 -10 -144 -4 -3 3 29 6 72 7 42 1 75 0 72 -3z
m-5459 -86 c0 -13 7 -20 20 -20 15 0 20 -7 20 -25 0 -18 5 -25 20 -25 13 0 20
-7 20 -20 0 -13 7 -20 20 -20 13 0 20 -7 20 -20 0 -13 7 -20 20 -20 13 0 20
-7 20 -20 0 -11 7 -20 15 -20 21 0 19 -28 -2 -33 -11 -3 -7 -5 10 -6 17 -1 27
-7 27 -16 0 -8 -4 -15 -10 -15 -5 0 -10 -9 -10 -20 0 -11 -7 -20 -15 -20 -8 0
-15 7 -15 15 0 8 -9 15 -20 15 -13 0 -20 7 -20 20 0 13 -7 20 -20 20 -17 0
-20 7 -20 41 0 36 -2 41 -20 36 -16 -4 -20 0 -20 19 0 17 -6 24 -20 24 -13 0
-20 7 -20 20 0 13 -7 20 -20 20 -11 0 -20 4 -20 9 0 5 10 7 23 5 l22 -5 -22
10 c-31 14 -33 71 -3 71 13 0 20 -7 20 -20z m7870 -10 c0 -17 -5 -30 -12 -30
-9 0 -8 -4 2 -10 15 -9 13 -11 -12 -14 -7 0 -14 -11 -16 -23 -2 -15 -10 -23
-23 -23 -12 0 -19 -7 -19 -20 0 -13 -7 -20 -20 -20 -17 0 -20 -7 -20 -40 0
-33 -3 -40 -20 -40 -13 0 -20 -7 -20 -20 0 -15 -7 -20 -25 -20 -20 0 -25 -5
-26 -27 l-2 -28 -4 28 c-5 31 -17 35 -33 10 -10 -15 -11 -14 -6 7 3 14 6 31 6
38 0 6 7 12 16 12 10 0 14 6 11 15 -4 8 -2 17 3 20 6 4 10 15 10 26 0 14 7 19
25 19 18 0 25 5 25 20 0 13 7 20 20 20 13 0 20 7 20 20 0 13 7 20 20 20 15 0
20 7 20 25 0 18 5 25 20 25 13 0 20 7 20 20 0 13 7 20 20 20 16 0 20 -7 20
-30z m-4333 -6 c-8 -9 -47 -13 -51 -6 -2 4 9 8 25 8 17 1 28 0 26 -2z m458 -4
c3 -5 1 -10 -4 -10 -6 0 -11 5 -11 10 0 6 2 10 4 10 3 0 8 -4 11 -10z m4109
-15 c3 3 1 -1 -4 -7 -9 -10 -13 -10 -20 2 -8 12 -10 13 -10 1 0 -8 -3 -12 -6
-8 -12 12 7 28 20 18 7 -6 16 -9 20 -6z m31 6 c3 -5 2 -12 -3 -15 -5 -3 -9 1
-9 9 0 17 3 19 12 6z m-4805 -101 c0 -17 7 -20 40 -20 33 0 40 -3 40 -20 0
-15 7 -20 25 -20 l25 0 0 -106 0 -106 -25 4 c-14 3 -26 1 -26 -3 -1 -5 -2 -15
-3 -21 -1 -9 -26 -14 -78 -16 -66 -3 -78 -1 -78 12 0 9 -9 16 -20 16 -15 0
-20 7 -20 25 0 20 -5 25 -25 25 -24 0 -25 2 -25 65 0 63 1 65 25 65 23 0 25 4
25 40 l0 40 46 0 c41 0 46 2 41 20 -4 15 0 20 14 20 12 0 19 -7 19 -20z m2080
0 c0 -17 7 -20 45 -20 l45 0 0 -40 c0 -33 3 -40 20 -40 18 0 20 -7 20 -65 0
-58 -2 -65 -20 -65 -16 0 -20 -7 -20 -30 0 -28 -2 -30 -20 -20 -17 9 -20 8
-20 -10 0 -20 -5 -21 -85 -19 -80 3 -85 4 -85 25 0 17 -4 21 -20 17 -19 -5
-20 0 -20 101 0 99 1 106 20 106 13 0 20 7 20 20 0 17 7 20 46 20 41 0 46 2
41 20 -4 15 0 20 14 20 12 0 19 -7 19 -20z m-2210 -70 c0 -5 -9 -10 -20 -10
-11 0 -20 5 -20 10 0 6 9 10 20 10 11 0 20 -4 20 -10z m2340 6 c0 -3 -4 -8
-10 -11 -5 -3 -10 -1 -10 4 0 6 5 11 10 11 6 0 10 -2 10 -4z m-4310 -155 c0
-5 -9 -11 -20 -14 -13 -3 -20 0 -20 9 0 8 9 14 20 14 11 0 20 -4 20 -9z m5417
-87 c-3 -3 -12 -4 -19 -1 -8 3 -5 6 6 6 11 1 17 -2 13 -5z m-4319 -21 c2 -8
-5 -13 -17 -13 -12 0 -21 6 -21 16 0 18 31 15 38 -3z m5732 8 c0 -6 -4 -13
-10 -16 -5 -3 -10 1 -10 9 0 9 5 16 10 16 6 0 10 -4 10 -9z m-40 -35 c0 -3 -4
-8 -10 -11 -5 -3 -10 -1 -10 4 0 6 5 11 10 11 6 0 10 -2 10 -4z m-3150 -53 c0
-15 -2 -16 -10 -3 -6 10 -10 11 -10 3 0 -7 -4 -13 -10 -13 -5 0 -10 7 -10 15
0 8 9 15 20 15 12 0 20 -7 20 -17z m3160 7 c0 -5 -7 -10 -15 -10 -8 0 -15 5
-15 10 0 6 7 10 15 10 8 0 15 -4 15 -10z m-9333 -46 c-3 -3 -12 -4 -19 -1 -8
3 -5 6 6 6 11 1 17 -2 13 -5z m3506 -1 c-13 -2 -33 -2 -45 0 -13 2 -3 4 22 4
25 0 35 -2 23 -4z m5361 -799 l49 -65 -32 -31 c-42 -42 -47 -69 -26 -154 17
-67 17 -97 1 -134 -5 -13 3 -14 51 -11 80 5 100 -2 341 -117 l83 -39 -110 -87
-110 -86 -143 70 c-99 50 -151 70 -172 68 -16 -2 -31 -7 -33 -13 -1 -5 38 -62
88 -125 50 -63 93 -118 95 -122 3 -5 -145 -128 -182 -150 -6 -4 -52 46 -104
113 -52 65 -99 119 -106 119 -34 0 -31 -58 10 -229 l33 -141 -36 -27 c-20 -15
-69 -53 -109 -86 -41 -32 -75 -57 -76 -55 -1 2 -17 73 -34 158 -35 169 -40
252 -18 305 l15 35 -43 0 c-28 0 -62 10 -97 29 -81 42 -99 44 -155 16 -27 -13
-51 -21 -54 -17 -4 4 -26 31 -49 60 -24 29 -41 59 -38 66 7 18 114 91 170 116
23 11 54 20 69 20 15 0 80 -27 143 -61 78 -40 122 -58 135 -54 11 4 20 11 20
16 0 5 -40 60 -90 122 -49 61 -90 114 -90 118 0 6 167 139 184 145 7 3 52 -45
102 -110 49 -63 95 -115 101 -116 24 0 25 48 3 127 -54 193 -52 205 62 316 44
42 85 77 92 77 6 -1 33 -30 60 -66z m-7071 -54 c36 -30 66 -59 66 -65 0 -5
-42 -59 -94 -119 -52 -60 -95 -112 -95 -116 0 -4 10 -10 23 -14 15 -4 52 9
123 44 134 68 158 71 237 31 34 -17 85 -50 114 -75 l52 -43 -55 -66 -56 -65
-35 24 c-46 31 -91 31 -156 -3 -33 -16 -69 -26 -100 -27 -38 -1 -46 -4 -40
-16 3 -8 8 -47 11 -86 3 -58 -3 -99 -33 -225 -21 -85 -40 -157 -44 -161 -6 -6
-203 156 -209 173 -2 4 13 65 32 136 47 173 50 194 32 218 -17 23 -5 34 -130
-112 -49 -57 -91 -103 -95 -103 -4 0 -48 34 -98 77 l-92 76 32 38 c18 21 135
159 262 307 l230 270 26 -22 c15 -11 56 -46 92 -76z m972 -694 c129 -41 256
-139 299 -231 9 -19 22 -59 28 -90 37 -186 -121 -455 -298 -505 -22 -7 -78
-11 -125 -9 -74 4 -94 9 -169 45 -112 54 -197 132 -234 214 -25 56 -28 70 -24
159 3 91 6 103 45 182 109 221 272 300 478 235z m4935 -353 c68 -156 124 -283
126 -283 2 0 19 8 39 17 19 9 36 15 38 12 2 -2 35 -77 74 -166 l70 -161 -91
-41 -91 -40 -37 80 -37 80 -33 -14 c-91 -39 -433 -189 -435 -190 0 -1 12 -30
27 -64 47 -104 51 -94 -50 -137 -50 -22 -92 -37 -94 -35 -4 3 -81 178 -132
297 l-14 32 40 16 41 17 -7 46 c-21 153 -57 271 -133 440 l-49 109 312 135
c171 75 312 135 312 134 1 -1 57 -129 124 -284z m-3517 -180 c65 -17 107 -32
107 -40 0 -7 -13 -61 -29 -120 -16 -60 -59 -226 -97 -370 -37 -144 -70 -267
-74 -272 -4 -7 -47 0 -120 20 -63 17 -117 32 -119 34 -3 4 47 201 115 455 18
69 30 128 26 131 -7 6 -175 50 -178 46 -1 -1 -16 -58 -33 -127 -88 -346 -119
-399 -239 -408 -59 -4 -215 27 -235 47 -5 5 -2 40 9 86 l18 76 52 -7 c84 -10
72 -39 221 537 l15 57 226 -59 c125 -33 275 -71 335 -86z m2336 -23 c7 -36 14
-72 17 -81 3 -13 -30 -22 -202 -54 l-206 -39 7 -44 c13 -86 -3 -83 208 -42
186 36 188 36 192 16 18 -86 26 -138 22 -142 -3 -3 -89 -21 -191 -41 -157 -30
-186 -38 -182 -52 3 -9 10 -42 16 -73 6 -32 17 -58 23 -58 7 0 101 17 210 39
109 21 199 35 201 32 7 -12 29 -171 25 -175 -5 -5 -633 -126 -653 -126 -7 0
-26 78 -49 203 -21 111 -53 285 -73 386 -19 101 -33 189 -31 195 4 12 638 136
648 127 4 -3 12 -35 18 -71z m-1334 -77 l258 -6 -7 -171 c-3 -94 -9 -276 -12
-404 l-7 -233 -126 3 -126 3 2 90 c2 50 6 185 9 302 l6 212 -94 3 -95 3 -7
-188 c-9 -269 -26 -337 -92 -378 -48 -29 -156 -44 -235 -33 -74 10 -75 12 -64
110 l7 64 38 0 c22 0 47 8 61 19 22 18 24 28 31 173 3 84 7 217 7 296 l1 142
93 0 c52 0 210 -3 352 -7z"/>
<path d="M3255 11245 c-38 -30 -69 -58 -68 -62 1 -5 26 -45 56 -91 30 -45 76
-124 102 -176 l48 -94 96 75 c53 42 95 79 94 84 -5 15 -244 319 -251 319 -4 0
-38 -25 -77 -55z"/>
<path d="M4070 4177 c0 -10 8 -17 18 -17 9 0 13 4 7 8 -5 4 -13 11 -17 16 -5
5 -8 2 -8 -7z"/>
<path d="M5897 4503 c4 -10 29 -13 94 -11 50 1 84 5 77 10 -8 4 9 8 40 8 28 0
52 -4 52 -10 0 -5 17 -9 38 -9 35 2 35 2 7 8 -26 4 -24 6 20 11 33 5 4 7 -88
8 -90 1 -136 -1 -132 -8 4 -6 -12 -10 -40 -10 -25 0 -44 4 -41 8 2 4 -4 8 -14
8 -10 0 -16 -6 -13 -13z"/>
<path d="M6098 4493 c6 -2 18 -2 25 0 6 3 1 5 -13 5 -14 0 -19 -2 -12 -5z"/>
<path d="M5895 4462 c6 -7 97 -3 104 4 3 3 -21 4 -52 3 -32 -1 -55 -4 -52 -7z"/>
<path d="M6268 4463 c29 -2 74 -2 100 0 26 2 2 3 -53 3 -55 0 -76 -1 -47 -3z"/>
<path d="M7980 4505 c0 -12 12 -15 53 -13 l52 2 -50 3 c-35 3 -45 7 -35 13 13
8 12 10 -2 10 -10 0 -18 -7 -18 -15z"/>
<path d="M7935 4460 c-18 -5 4 -6 55 -3 47 3 87 7 89 9 8 7 -114 2 -144 -6z"/>
<path d="M8338 4463 c12 -2 32 -2 45 0 12 2 2 4 -23 4 -25 0 -35 -2 -22 -4z"/>
<path d="M5226 4505 c-3 -8 -1 -15 4 -15 6 0 10 7 10 15 0 8 -2 15 -4 15 -2 0
-6 -7 -10 -15z"/>
<path d="M5318 4513 c23 -2 61 -2 85 0 23 2 4 4 -43 4 -47 0 -66 -2 -42 -4z"/>
<path d="M5318 4493 c23 -2 61 -2 85 0 23 2 4 4 -43 4 -47 0 -66 -2 -42 -4z"/>
<path d="M5318 4463 c23 -2 61 -2 85 0 23 2 4 4 -43 4 -47 0 -66 -2 -42 -4z"/>
<path d="M7190 4463 c0 -5 28 -7 62 -5 107 5 117 9 26 11 -49 0 -88 -2 -88 -6z"/>
<path d="M4155 2097 c-91 -41 -183 -228 -156 -317 14 -47 67 -96 122 -110 84
-23 154 27 219 157 42 82 47 132 21 185 -37 77 -135 117 -206 85z"/>
<path d="M8851 1904 c-41 -19 -77 -36 -79 -39 -2 -2 9 -41 26 -87 16 -46 42
-136 57 -201 18 -77 31 -117 39 -113 95 40 203 89 208 95 11 9 -152 381 -166
380 -6 0 -45 -16 -85 -35z"/>
<path d="M6240 13440 c0 -5 5 -10 11 -10 5 0 7 5 4 10 -3 6 -8 10 -11 10 -2 0
-4 -4 -4 -10z"/>
<path d="M6325 13440 c-3 -5 -1 -10 4 -10 6 0 11 5 11 10 0 6 -2 10 -4 10 -3
0 -8 -4 -11 -10z"/>
<path d="M6387 13433 c4 -9 9 -10 18 -3 6 5 15 8 18 5 4 -3 5 -2 2 2 -10 13
-43 10 -38 -4z"/>
<path d="M6940 13440 c-12 -7 -10 -9 7 -7 12 0 19 5 17 9 -6 10 -6 10 -24 -2z"/>
<path d="M10900 10884 c0 -9 5 -12 12 -8 7 4 8 3 4 -4 -4 -7 -27 -12 -52 -12
-26 0 -44 -5 -44 -11 0 -6 9 -9 20 -6 13 3 20 0 20 -9 0 -8 -9 -14 -20 -14
-18 0 -25 -10 -21 -32 0 -5 -14 -8 -33 -8 -19 0 -38 -5 -42 -12 -5 -8 0 -9 14
-6 15 4 22 2 22 -8 0 -8 -3 -13 -7 -13 -5 1 -23 1 -41 0 -25 -1 -32 -5 -30
-18 2 -13 -5 -19 -24 -21 -22 -3 -28 -9 -28 -28 0 -17 -5 -24 -20 -24 -11 0
-20 -4 -20 -9 0 -6 9 -8 20 -6 11 2 20 -1 20 -7 0 -5 -9 -12 -20 -15 -11 -3
-20 -12 -20 -20 0 -9 5 -11 13 -7 18 11 236 203 280 246 21 21 43 38 50 38 7
-1 26 -18 42 -39 17 -21 52 -64 79 -96 36 -41 46 -59 37 -64 -37 -23 -219
-187 -217 -196 5 -19 63 -16 122 6 33 11 76 26 97 32 l37 11 0 108 c0 101 -1
108 -20 108 -13 0 -20 7 -20 20 0 13 -7 20 -20 20 -13 0 -20 7 -20 20 0 13 -7
20 -20 20 -13 0 -20 7 -20 19 0 13 -8 21 -22 23 -16 2 -22 9 -20 21 2 14 -5
17 -43 17 -34 0 -45 -4 -45 -16z"/>
<path d="M10788 10813 c7 -3 16 -2 19 1 4 3 -2 6 -13 5 -11 0 -14 -3 -6 -6z"/>
<path d="M6260 10690 c0 -5 5 -10 10 -10 6 0 10 5 10 10 0 6 -4 10 -10 10 -5
0 -10 -4 -10 -10z"/>
<path d="M2240 10594 c0 -17 22 -14 28 4 2 7 -3 12 -12 12 -9 0 -16 -7 -16
-16z"/>
<path d="M2300 10606 c0 -2 14 -9 30 -15 24 -8 30 -7 30 5 0 9 -10 14 -30 14
-16 0 -30 -2 -30 -4z"/>
<path d="M2200 10550 c0 -15 -7 -20 -25 -20 -22 0 -25 -4 -25 -40 0 -33 -3
-40 -20 -40 -14 0 -20 -7 -20 -22 1 -25 4 -21 79 68 12 16 32 39 44 52 l20 22
-26 0 c-20 0 -27 -5 -27 -20z"/>
<path d="M2440 10555 c46 -18 50 -18 50 0 0 11 -11 15 -42 14 l-43 -1 35 -13z"/>
<path d="M10570 10554 c0 -14 3 -14 15 -4 8 7 15 14 15 16 0 2 -7 4 -15 4 -8
0 -15 -7 -15 -16z"/>
<path d="M2545 10519 c55 -18 65 -18 65 -3 0 10 -12 14 -47 13 -45 -1 -46 -1
-18 -10z"/>
<path d="M10530 10520 c0 -5 7 -7 15 -4 8 4 15 8 15 10 0 2 -7 4 -15 4 -8 0
-15 -4 -15 -10z"/>
<path d="M11218 10523 c7 -3 16 -2 19 1 4 3 -2 6 -13 5 -11 0 -14 -3 -6 -6z"/>
<path d="M2659 10479 c14 -5 32 -11 40 -12 9 -1 22 -6 29 -10 8 -6 12 -2 12
12 0 19 -6 21 -52 20 -45 0 -49 -2 -29 -10z"/>
<path d="M10490 10479 c0 -5 5 -7 10 -4 6 3 10 8 10 11 0 2 -4 4 -10 4 -5 0
-10 -5 -10 -11z"/>
<path d="M11290 10486 c0 -2 7 -9 15 -16 12 -10 15 -10 15 4 0 9 -7 16 -15 16
-8 0 -15 -2 -15 -4z"/>
<path d="M2800 10431 c47 -19 60 -18 60 3 0 9 -17 13 -52 14 l-53 1 45 -18z"/>
<path d="M10400 10425 c0 -18 -5 -25 -20 -25 -13 0 -20 -7 -20 -20 0 -13 -7
-20 -20 -20 -18 0 -20 -7 -20 -80 0 -73 2 -80 20 -80 15 0 20 -7 20 -25 0 -18
5 -25 20 -25 13 0 20 -7 20 -20 0 -15 7 -20 25 -20 18 0 25 -5 25 -20 0 -18 7
-20 80 -20 l80 0 0 -89 c0 -84 1 -89 20 -84 18 5 20 0 20 -36 0 -37 2 -41 25
-41 18 0 25 -5 25 -20 0 -13 7 -20 20 -20 11 0 20 -6 20 -14 0 -14 42 -26 91
-26 22 0 29 5 29 20 0 13 7 20 20 20 13 0 20 7 20 20 0 15 7 20 25 20 23 0 25
4 26 43 1 23 1 46 0 51 -1 5 4 4 12 -2 22 -19 27 -4 27 80 0 71 2 78 20 78 17
0 20 7 20 40 l0 40 185 0 185 0 0 25 c0 20 5 25 25 25 25 0 25 1 25 80 0 66
-3 80 -16 80 -8 0 -13 -4 -10 -8 3 -5 -24 -35 -61 -66 l-66 -57 -26 25 c-47
45 -76 49 -155 25 -43 -13 -86 -19 -111 -17 l-40 5 0 -77 c0 -71 -5 -88 -65
-238 -35 -89 -67 -161 -71 -160 -4 2 -45 46 -90 98 -46 52 -87 96 -91 98 -6 3
7 36 91 229 34 78 39 120 16 129 -9 4 -56 -31 -127 -95 l-113 -101 -40 43
c-95 101 -125 136 -125 144 0 4 26 31 58 60 l57 52 -32 1 c-29 0 -33 -3 -33
-25z"/>
<path d="M11330 10446 c0 -2 7 -9 15 -16 12 -10 15 -10 15 4 0 9 -7 16 -15 16
-8 0 -15 -2 -15 -4z"/>
<path d="M7280 10406 c0 -2 7 -6 15 -10 8 -3 15 -1 15 4 0 6 -7 10 -15 10 -8
0 -15 -2 -15 -4z"/>
<path d="M2915 10390 c27 -12 35 -12 35 0 0 6 -12 10 -27 9 -25 0 -26 -1 -8
-9z"/>
<path d="M11385 10390 c3 -5 8 -10 11 -10 2 0 4 5 4 10 0 6 -5 10 -11 10 -5 0
-7 -4 -4 -10z"/>
<path d="M2110 10373 c0 -7 -9 -13 -21 -13 -17 0 -20 -5 -17 -37 2 -26 8 -38
18 -38 10 0 16 -13 18 -42 3 -35 7 -43 23 -43 14 0 19 -7 19 -25 0 -20 5 -25
25 -25 23 0 25 -4 25 -40 0 -33 3 -40 20 -40 17 0 20 -7 20 -40 0 -33 3 -40
20 -40 17 0 20 -7 20 -45 0 -38 3 -45 20 -45 13 0 20 -7 20 -20 0 -13 7 -20
20 -20 17 0 20 -7 20 -40 0 -33 3 -40 20 -40 17 0 20 -7 20 -40 0 -36 3 -40
25 -40 20 0 25 -5 25 -25 0 -18 5 -25 20 -25 13 0 20 -7 20 -20 0 -18 7 -20
60 -20 46 0 60 3 60 14 0 8 5 18 12 22 7 4 8 3 4 -4 -5 -8 -2 -10 8 -6 10 4
16 18 16 35 0 24 4 29 25 29 23 0 25 4 25 40 0 33 3 40 20 40 27 0 30 60 3 61
-15 0 -15 2 2 9 19 8 19 9 -2 9 -25 1 -28 8 -14 30 7 11 11 10 20 -5 8 -15 10
-6 11 44 0 55 2 62 20 62 13 0 20 7 20 20 0 18 7 20 85 20 78 0 85 2 85 20 0
17 7 20 40 20 33 0 40 3 40 20 0 13 7 20 20 20 13 0 20 7 20 20 0 13 7 20 20
20 18 0 20 7 20 86 0 75 -2 85 -15 74 -8 -7 -12 -16 -9 -21 3 -5 1 -8 -4 -7
-9 3 -37 -27 -124 -130 l-27 -32 -57 25 c-31 14 -60 25 -65 25 -9 0 -168 -187
-176 -206 -2 -7 12 -35 33 -64 26 -36 35 -56 28 -65 -28 -39 -150 -184 -155
-185 -3 0 -97 159 -207 353 -222 389 -222 388 -222 370z"/>
<path d="M2370 10353 c0 -3 34 -58 76 -122 l76 -115 35 39 c18 22 43 52 54 68
19 26 20 27 2 34 -10 4 -69 28 -130 54 -62 26 -113 45 -113 42z"/>
<path d="M6060 10088 l1 -33 14 25 c18 32 18 40 0 40 -10 0 -15 -10 -15 -32z"/>
<path d="M6686 10019 c-24 -52 -101 -211 -171 -354 -70 -143 -156 -318 -190
-390 -35 -71 -113 -233 -175 -360 -62 -126 -147 -302 -190 -390 -43 -88 -128
-263 -190 -390 -180 -368 -251 -518 -247 -522 10 -9 37 11 37 28 0 12 7 19 20
19 17 0 20 7 20 40 0 33 3 40 20 40 17 0 20 7 20 45 0 38 3 45 20 45 17 0 20
7 20 40 0 33 3 40 20 40 17 0 20 7 20 40 0 33 3 40 20 40 17 0 20 7 20 44 0
39 2 43 23 42 16 -1 23 5 25 22 2 14 10 22 23 22 16 0 19 7 19 40 0 33 3 40
20 40 17 0 20 7 20 40 0 33 3 40 20 40 17 0 20 7 20 45 0 38 3 45 20 45 17 0
20 7 20 40 0 33 3 40 20 40 17 0 20 7 20 40 0 36 3 40 25 40 23 0 25 4 25 45
0 38 3 45 20 45 17 0 20 7 20 40 0 33 3 40 20 40 16 0 20 7 21 33 1 17 1 37
-1 42 -1 6 4 4 11 -2 21 -21 29 -15 29 22 0 28 4 35 20 35 18 0 20 7 21 63 0
34 3 56 6 50 7 -18 33 9 33 34 0 11 7 28 16 39 8 10 13 14 10 7 -4 -6 -2 -14
3 -17 10 -7 22 35 23 83 1 23 6 31 20 31 11 0 18 7 18 20 0 13 7 20 20 20 17
0 20 7 20 40 0 33 3 40 20 40 17 0 20 7 20 45 0 38 3 45 20 45 17 0 20 7 20
40 0 33 3 40 20 40 17 0 20 7 20 40 0 36 3 40 25 40 23 0 25 4 25 45 0 38 3
45 20 45 13 0 20 7 20 20 0 13 7 20 20 20 13 0 20 7 20 20 0 13 7 20 20 20 13
0 20 7 20 20 0 18 7 20 65 20 58 0 65 -2 65 -20 0 -13 7 -20 20 -20 17 0 20
-7 20 -40 0 -33 3 -40 20 -40 15 0 20 -7 20 -25 0 -18 5 -25 20 -25 17 0 20
-7 20 -40 0 -33 3 -40 20 -40 17 0 20 -7 20 -40 0 -33 3 -40 20 -40 17 0 20
-7 20 -45 0 -41 2 -45 25 -45 23 0 25 -4 25 -40 0 -33 3 -40 20 -40 13 0 20
-7 20 -20 0 -13 7 -20 20 -20 17 0 20 -7 20 -40 0 -33 3 -40 20 -40 17 0 20
-7 20 -45 0 -38 3 -45 20 -45 17 0 20 -7 20 -40 0 -33 3 -40 20 -40 17 0 20
-7 20 -40 0 -36 3 -40 25 -40 23 0 25 -4 25 -45 0 -38 3 -45 20 -45 16 0 20
-7 20 -36 0 -29 3 -34 13 -25 20 16 27 4 27 -45 0 -33 4 -43 20 -47 16 -4 20
-14 20 -51 0 -39 3 -46 20 -46 17 0 20 -7 20 -40 0 -33 3 -40 20 -40 17 0 20
-7 20 -40 0 -36 3 -40 25 -40 23 0 25 -4 25 -45 0 -38 3 -45 20 -45 17 0 20
-7 20 -40 0 -33 3 -40 20 -40 15 0 20 -7 20 -26 0 -21 4 -24 20 -19 15 5 20 2
18 -12 -4 -51 2 -73 22 -73 17 0 20 -7 20 -40 0 -33 3 -40 20 -40 17 0 20 -7
20 -40 0 -36 3 -40 25 -40 23 0 25 -4 25 -45 0 -38 3 -45 20 -45 17 0 20 -7
20 -40 0 -33 3 -40 20 -40 17 0 20 -7 20 -42 1 -36 2 -40 11 -24 9 15 13 16
20 5 5 -8 9 -24 9 -36 0 -16 6 -23 20 -23 19 0 19 1 -4 53 -13 28 -81 169
-151 312 -138 281 -258 527 -395 810 -48 99 -126 259 -173 355 -46 96 -173
357 -281 580 -108 223 -201 409 -206 414 -6 6 -26 -27 -54 -85z"/>
<path d="M7406 10102 c-3 -5 1 -9 9 -9 8 0 12 4 9 9 -3 4 -7 8 -9 8 -2 0 -6
-4 -9 -8z"/>
<path d="M7400 10073 c1 -5 7 -19 15 -33 l14 -25 1 33 c0 22 -5 32 -15 32 -8
0 -15 -3 -15 -7z"/>
<path d="M4530 10029 c-187 -113 -515 -399 -679 -594 -58 -68 -70 -89 -79
-137 -48 -246 -243 -501 -411 -539 -74 -17 -131 38 -131 124 0 40 25 128 51
179 l19 37 -33 3 -32 3 -3 86 -3 86 26 -4 25 -5 0 126 c0 69 -4 126 -9 126 -5
0 -16 -39 -25 -87 -9 -49 -33 -173 -52 -278 l-36 -190 17 -75 c38 -179 7 -337
-85 -429 -56 -56 -113 -52 -147 11 -29 53 -25 212 8 306 24 67 24 72 7 72 -11
0 -18 -7 -18 -20 0 -13 -7 -20 -20 -20 -13 0 -20 7 -20 20 0 13 -7 20 -20 20
-19 0 -20 -7 -20 -227 1 -218 2 -230 23 -264 13 -21 28 -34 36 -31 9 3 11 0 6
-9 -5 -8 -4 -11 1 -6 5 5 9 14 9 20 0 7 20 13 48 15 l47 3 0 -125 0 -126 40 0
c33 0 40 -4 40 -19 0 -30 40 -30 113 -2 53 21 86 45 172 126 59 54 102 101 96
103 -6 2 -11 24 -11 48 0 40 2 44 25 44 24 0 25 3 25 60 0 53 2 60 20 60 17 0
20 7 20 40 0 33 3 40 20 40 15 0 20 7 20 25 0 18 5 25 20 25 13 0 20 7 20 20
0 17 7 20 40 20 33 0 40 3 40 20 0 15 7 20 25 20 18 0 25 5 25 20 0 13 7 20
20 20 13 0 20 7 20 20 0 13 7 20 20 20 13 0 20 7 20 20 0 13 7 20 20 20 15 0
20 7 20 25 0 18 5 25 20 25 13 0 20 7 20 20 0 13 7 20 20 20 17 0 20 7 20 41
l0 41 -67 -53 c-38 -29 -135 -109 -218 -177 l-150 -124 -18 -67 c-39 -142
-138 -306 -230 -380 -183 -147 -315 -51 -225 163 33 79 83 152 144 212 45 44
52 54 35 54 -14 0 -21 6 -21 20 0 15 7 20 25 20 18 0 25 -5 25 -19 0 -16 9
-14 73 20 39 21 88 44 107 50 61 20 338 255 321 272 -5 5 -18 7 -28 3 -15 -6
-15 -9 -3 -16 8 -5 11 -12 7 -17 -13 -12 -23 14 -26 63 -2 38 1 45 13 41 8 -3
17 -1 20 6 4 7 4 2 2 -10 -2 -13 0 -23 5 -23 5 0 9 38 9 85 0 78 2 85 20 85
13 0 20 7 20 20 0 13 7 20 20 20 17 0 20 7 20 40 0 33 3 40 20 40 15 0 20 7
20 25 0 18 5 25 20 25 13 0 20 7 20 20 0 13 7 20 20 20 13 0 20 7 20 20 0 15
7 20 25 20 18 0 25 5 25 20 0 13 7 20 20 20 13 0 20 7 20 20 0 13 7 20 20 20
13 0 20 7 20 20 0 14 7 20 24 20 20 0 23 4 20 28 -2 15 -1 21 2 15 7 -15 34
-18 34 -4 0 5 9 12 19 16 10 3 21 15 24 25 4 14 10 18 22 14 11 -5 18 0 22 15
3 12 13 21 24 21 12 0 19 7 19 20 0 13 7 20 20 20 13 0 20 7 20 20 0 17 7 20
40 20 33 0 40 3 40 20 0 13 7 20 20 20 15 0 20 7 20 25 0 20 5 25 25 25 18 0
25 5 25 20 0 13 7 20 20 20 18 0 20 7 20 55 0 30 -1 55 -2 55 -2 0 -19 -10
-38 -21z"/>
<path d="M8900 9996 c0 -49 2 -56 20 -56 13 0 20 -7 20 -20 0 -13 7 -20 20
-20 15 0 20 -7 20 -25 0 -21 5 -25 33 -26 17 -1 38 -1 45 0 6 1 12 -7 12 -19
0 -13 7 -20 20 -20 13 0 20 -7 20 -20 0 -13 7 -20 20 -20 13 0 20 -7 20 -20 0
-13 7 -20 20 -20 13 0 20 -7 20 -20 0 -14 6 -20 17 -18 10 2 22 -7 29 -20 6
-13 14 -23 18 -23 51 6 66 0 66 -24 0 -18 5 -25 20 -25 13 0 20 -7 20 -20 0
-13 7 -20 19 -20 10 0 22 -7 25 -16 3 -9 12 -14 18 -12 7 3 19 -1 26 -9 8 -7
18 -11 23 -8 5 4 9 -12 9 -34 0 -37 2 -41 25 -41 18 0 25 -5 25 -20 0 -13 7
-20 20 -20 15 0 20 -7 20 -25 0 -18 5 -25 20 -25 13 0 20 -7 20 -20 0 -13 7
-20 20 -20 17 0 20 -7 20 -40 0 -33 3 -40 20 -40 18 0 20 -7 20 -65 0 -58 2
-65 20 -65 18 0 20 -7 20 -60 0 -41 -4 -60 -12 -60 -7 0 -3 -8 8 -18 12 -9 72
-60 135 -113 74 -62 132 -102 164 -114 158 -57 285 -169 356 -312 39 -78 44
-96 44 -156 0 -63 -2 -71 -28 -93 -61 -52 -154 -21 -262 90 -56 57 -84 95
-122 172 -27 54 -58 129 -67 166 l-18 66 -126 104 c-203 167 -305 248 -314
248 -4 0 -8 -18 -8 -40 0 -36 3 -40 25 -40 18 0 25 -5 25 -20 0 -13 7 -20 20
-20 15 0 20 -7 20 -25 0 -18 5 -25 20 -25 13 0 20 -7 20 -20 0 -13 7 -20 20
-20 13 0 20 -7 20 -20 0 -13 7 -20 20 -20 13 0 20 -7 20 -20 0 -17 7 -20 45
-20 38 0 45 -3 45 -20 0 -13 7 -20 20 -20 13 0 20 -7 20 -20 0 -13 7 -20 20
-20 15 0 20 -7 20 -25 0 -18 5 -25 20 -25 17 0 20 -7 20 -40 0 -33 3 -40 20
-40 18 0 20 -7 20 -60 0 -54 2 -60 21 -60 18 0 20 -5 18 -48 l-3 -47 103 -100
c87 -86 111 -104 169 -125 76 -29 112 -28 112 1 0 12 7 19 20 19 15 0 20 7 20
25 0 18 5 25 20 25 19 0 20 7 20 100 l0 100 45 0 c42 0 51 6 46 33 -1 5 3 6 9
2 6 -3 7 -12 3 -18 -4 -7 1 -5 11 2 16 13 18 13 16 0 -6 -38 2 -40 20 -4 18
35 20 59 20 222 l0 183 -40 0 c-33 0 -40 3 -40 20 0 11 -4 20 -9 20 -5 0 0
-27 10 -61 21 -68 26 -210 8 -256 -17 -44 -49 -73 -83 -73 -42 0 -116 79 -147
156 -28 71 -32 207 -10 320 13 69 13 76 -28 300 -55 296 -61 324 -72 324 -5 0
-9 -54 -9 -121 0 -112 1 -121 20 -126 18 -5 20 -14 20 -82 0 -53 -3 -71 -10
-61 -8 13 -10 13 -10 -2 0 -9 6 -19 13 -21 6 -3 2 -6 -9 -6 -12 -1 -25 6 -28
15 -3 8 -2 12 4 9 6 -3 7 1 4 9 -3 9 -17 16 -31 16 -14 0 -22 -4 -18 -10 4 -6
11 -7 17 -4 6 4 8 3 5 -3 -3 -5 4 -30 18 -54 62 -117 72 -247 22 -296 -20 -21
-35 -26 -70 -26 -162 3 -371 258 -435 532 -15 68 -23 81 -92 160 -101 116
-217 230 -325 322 -107 90 -290 227 -346 258 l-39 22 0 -55z"/>
<path d="M6010 9990 c0 -33 -3 -40 -20 -40 -17 0 -20 -7 -20 -42 l1 -43 25 50
c13 28 31 65 39 83 13 30 13 32 -6 32 -16 0 -19 -7 -19 -40z"/>
<path d="M4320 10009 c0 -5 5 -7 10 -4 6 3 10 8 10 11 0 2 -4 4 -10 4 -5 0
-10 -5 -10 -11z"/>
<path d="M9135 10010 c3 -5 8 -10 11 -10 2 0 4 5 4 10 0 6 -5 10 -11 10 -5 0
-7 -4 -4 -10z"/>
<path d="M7447 9993 c-3 -5 1 -19 9 -33 l13 -25 1 27 c0 27 -14 45 -23 31z"/>
<path d="M3030 9929 c0 -5 5 -7 10 -4 6 3 10 8 10 11 0 2 -4 4 -10 4 -5 0 -10
-5 -10 -11z"/>
<path d="M4195 9929 c-11 -17 -2 -18 25 -4 24 14 24 14 3 15 -12 0 -25 -5 -28
-11z"/>
<path d="M9245 9930 c3 -5 13 -10 21 -10 8 0 14 5 14 10 0 6 -9 10 -21 10 -11
0 -17 -4 -14 -10z"/>
<path d="M10425 9930 c3 -5 8 -10 11 -10 2 0 4 5 4 10 0 6 -5 10 -11 10 -5 0
-7 -4 -4 -10z"/>
<path d="M7491 9888 c17 -34 19 -34 19 -5 0 18 -5 27 -15 27 -13 0 -14 -4 -4
-22z"/>
<path d="M12056 9901 c-3 -5 1 -11 9 -15 8 -3 15 -1 15 4 0 13 -18 22 -24 11z"/>
<path d="M2980 9880 c0 -11 2 -20 5 -20 2 0 9 9 15 20 9 16 8 20 -5 20 -8 0
-15 -9 -15 -20z"/>
<path d="M4150 9884 c0 -14 3 -14 15 -4 8 7 15 14 15 16 0 2 -7 4 -15 4 -8 0
-15 -7 -15 -16z"/>
<path d="M9295 9890 c3 -5 10 -10 16 -10 5 0 9 5 9 10 0 6 -7 10 -16 10 -8 0
-12 -4 -9 -10z"/>
<path d="M10465 9890 c3 -5 8 -10 11 -10 2 0 4 5 4 10 0 6 -5 10 -11 10 -5 0
-7 -4 -4 -10z"/>
<path d="M11781 9803 c18 -32 34 -60 36 -62 1 -2 3 14 3 37 0 35 -3 42 -20 42
-13 0 -20 7 -20 20 0 12 -7 20 -16 20 -12 0 -9 -12 17 -57z"/>
<path d="M2940 9834 c0 -14 3 -14 15 -4 8 7 15 14 15 16 0 2 -7 4 -15 4 -8 0
-15 -7 -15 -16z"/>
<path d="M10500 9846 c0 -2 7 -9 15 -16 12 -10 15 -10 15 4 0 9 -7 16 -15 16
-8 0 -15 -2 -15 -4z"/>
<path d="M5930 9808 c0 -19 2 -20 10 -8 13 19 13 30 0 30 -5 0 -10 -10 -10
-22z"/>
<path d="M7536 9798 c23 -46 24 -46 24 -5 0 30 -4 37 -20 37 -20 0 -20 -1 -4
-32z"/>
<path d="M2900 9802 c0 -5 7 -9 15 -9 8 0 15 4 15 9 0 4 -7 8 -15 8 -8 0 -15
-4 -15 -8z"/>
<path d="M10546 9788 c10 -13 20 -25 21 -27 2 -2 3 8 3 22 0 21 -5 27 -22 27
-21 0 -21 0 -2 -22z"/>
<path d="M11360 9770 c0 -5 7 -7 15 -4 8 4 15 8 15 10 0 2 -7 4 -15 4 -8 0
-15 -4 -15 -10z"/>
<path d="M10583 9755 c0 -8 4 -12 9 -9 4 3 8 9 8 15 0 5 -4 9 -8 9 -5 0 -9 -7
-9 -15z"/>
<path d="M1610 9703 c1 -39 10 -33 24 15 6 16 3 22 -8 22 -12 0 -16 -10 -16
-37z"/>
<path d="M1832 9713 c-25 -63 -19 -94 29 -149 40 -46 41 -46 37 -18 -2 21 -8
28 -20 26 -11 -2 -18 3 -18 14 0 10 5 14 15 11 8 -4 17 -2 20 4 4 5 3 9 -2 8
-29 -5 -33 4 -33 66 0 69 -11 83 -28 38z"/>
<path d="M5890 9725 c0 -8 2 -15 4 -15 2 0 6 7 10 15 3 8 1 15 -4 15 -6 0 -10
-7 -10 -15z"/>
<path d="M7576 9718 c14 -48 23 -54 24 -15 0 27 -4 37 -16 37 -11 0 -14 -6 -8
-22z"/>
<path d="M10595 9731 c-3 -5 -1 -12 5 -16 5 -3 10 1 10 9 0 18 -6 21 -15 7z"/>
<path d="M9506 9705 c37 -37 64 -50 64 -30 0 10 -7 15 -17 13 -12 -2 -19 4
-21 20 -2 16 -10 22 -27 22 l-24 0 25 -25z"/>
<path d="M11735 9686 c-44 -23 -129 -70 -189 -104 -122 -68 -123 -66 22 -77
69 -5 82 -3 82 10 0 9 9 15 25 15 18 0 25 5 25 20 0 13 7 20 20 20 13 0 20 7
20 20 0 13 7 20 20 20 13 0 20 7 20 20 0 13 7 20 20 20 17 0 20 7 20 40 0 22
-1 40 -2 40 -2 0 -39 -20 -83 -44z"/>
<path d="M2820 9675 c0 -8 2 -15 4 -15 2 0 6 7 10 15 3 8 1 15 -4 15 -6 0 -10
-7 -10 -15z"/>
<path d="M3905 9680 c4 -6 11 -8 16 -5 14 9 11 15 -7 15 -8 0 -12 -5 -9 -10z"/>
<path d="M10630 9681 c0 -6 5 -13 10 -16 6 -3 10 1 10 9 0 9 -4 16 -10 16 -5
0 -10 -4 -10 -9z"/>
<path d="M7610 9653 c0 -6 5 -15 10 -18 6 -4 8 -10 6 -14 -3 -4 -1 -13 5 -21
7 -12 9 -11 9 6 0 21 -29 68 -30 47z"/>
<path d="M1570 9515 l0 -135 38 -24 c40 -25 138 -76 147 -76 3 0 5 10 5 23 0
26 -16 51 -80 127 -66 77 -82 113 -78 171 2 41 0 49 -14 49 -16 0 -18 -13 -18
-135z"/>
<path d="M9580 9640 c0 -5 7 -10 15 -10 8 0 15 5 15 10 0 6 -7 10 -15 10 -8 0
-15 -4 -15 -10z"/>
<path d="M10671 9633 c7 -10 15 -20 16 -22 2 -2 3 5 3 17 0 14 -6 22 -16 22
-14 0 -15 -3 -3 -17z"/>
<path d="M2730 9549 c0 -5 5 -7 10 -4 6 3 10 8 10 11 0 2 -4 4 -10 4 -5 0 -10
-5 -10 -11z"/>
<path d="M3150 9520 c0 -22 2 -40 4 -40 2 0 6 18 8 40 2 22 0 40 -4 40 -5 0
-8 -18 -8 -40z"/>
<path d="M10311 9530 c-1 -29 3 -36 18 -36 11 0 18 3 15 7 -2 4 2 10 8 13 7 3
3 3 -9 0 -18 -4 -22 0 -26 23 -3 25 -4 24 -6 -7z"/>
<path d="M10990 9468 c0 -61 2 -68 20 -68 20 0 25 -17 20 -64 -1 -11 3 -16 12
-14 7 3 12 12 10 22 -2 9 1 16 6 16 5 0 9 -8 9 -17 0 -61 1 -63 43 -63 33 0
40 -3 40 -20 0 -19 7 -20 125 -20 l125 0 0 -28 c0 -16 3 -32 7 -35 7 -8 223
104 223 116 0 4 -19 7 -42 7 -37 0 -274 20 -425 36 l-52 5 -41 74 c-22 40 -49
84 -60 97 l-19 23 -1 -67z"/>
<path d="M10761 9503 c7 -10 15 -20 16 -22 2 -2 3 5 3 17 0 14 -6 22 -16 22
-14 0 -15 -3 -3 -17z"/>
<path d="M1920 9455 c0 -32 2 -35 19 -26 13 7 17 18 14 36 -8 39 -33 31 -33
-10z"/>
<path d="M10326 9443 c3 -21 12 -67 19 -103 l13 -65 1 103 c1 96 0 102 -19
102 -18 0 -19 -5 -14 -37z"/>
<path d="M2650 9425 c0 -8 2 -15 4 -15 2 0 6 7 10 15 3 8 1 15 -4 15 -6 0 -10
-7 -10 -15z"/>
<path d="M3111 9348 l1 -93 14 70 c17 94 17 115 -1 115 -12 0 -15 -16 -14 -92z"/>
<path d="M10805 9430 c3 -5 8 -10 11 -10 2 0 4 5 4 10 0 6 -5 10 -11 10 -5 0
-7 -4 -4 -10z"/>
<path d="M2343 9313 l-48 -93 -170 6 c-147 5 -173 4 -190 -10 -20 -16 -20 -16
-1 -31 36 -28 176 -96 176 -86 0 6 9 11 20 11 13 0 20 7 20 20 0 18 7 20 85
20 84 0 85 0 85 25 0 18 5 25 20 25 17 0 20 7 20 40 0 33 3 40 20 40 17 0 20
7 20 40 0 36 3 40 25 40 38 0 34 36 -4 42 -29 4 -32 0 -78 -89z"/>
<path d="M2610 9378 c0 -12 1 -19 3 -17 1 2 9 12 16 22 12 14 11 17 -3 17 -10
0 -16 -8 -16 -22z"/>
<path d="M10841 9383 c7 -10 15 -20 16 -22 2 -2 3 5 3 17 0 14 -6 22 -16 22
-14 0 -15 -3 -3 -17z"/>
<path d="M12010 9391 c0 -6 5 -13 10 -16 6 -3 10 1 10 9 0 9 -4 16 -10 16 -5
0 -10 -4 -10 -9z"/>
<path d="M1400 9298 c0 -19 2 -20 10 -8 13 19 13 30 0 30 -5 0 -10 -10 -10
-22z"/>
<path d="M12056 9305 c4 -8 8 -15 10 -15 2 0 4 7 4 15 0 8 -4 15 -10 15 -5 0
-7 -7 -4 -15z"/>
<path d="M11785 9102 c-154 -87 -310 -174 -347 -195 l-66 -37 -46 82 -45 83
-1 -67 c0 -61 2 -68 20 -68 13 0 20 -7 20 -20 0 -13 7 -20 20 -20 13 0 20 -7
20 -20 0 -18 7 -20 65 -20 58 0 65 2 65 20 0 17 7 20 40 20 33 0 40 3 40 20 0
13 7 20 20 20 15 0 20 7 20 25 0 23 4 25 45 25 38 0 45 3 45 20 0 17 7 20 40
20 33 0 40 3 40 20 0 17 7 20 40 20 33 0 40 3 40 20 0 17 7 20 45 20 38 0 45
3 45 20 0 13 7 20 20 20 13 0 20 7 20 20 0 17 7 20 40 20 l40 0 0 55 c0 30 -1
55 -2 54 -2 0 -129 -71 -283 -157z"/>
<path d="M1360 9175 c0 -58 2 -65 20 -65 13 0 20 -7 20 -20 0 -17 7 -20 45
-20 38 0 45 -3 45 -20 0 -17 7 -20 40 -20 33 0 40 -3 40 -20 0 -17 7 -20 40
-20 33 0 40 -3 40 -20 0 -17 7 -20 45 -20 41 0 45 -2 45 -25 0 -18 5 -25 20
-25 13 0 20 -7 20 -20 0 -17 7 -20 40 -20 33 0 40 -3 40 -20 0 -17 7 -20 45
-20 38 0 45 -3 45 -20 0 -18 7 -20 80 -20 73 0 80 2 80 20 0 13 7 20 20 20 13
0 20 7 20 20 0 15 7 20 25 20 25 0 25 1 25 88 l0 87 -23 -40 c-13 -22 -40 -70
-61 -108 l-37 -67 -32 16 c-18 9 -140 74 -272 144 -132 70 -277 146 -323 170
-75 38 -83 45 -78 66 4 14 2 24 -4 24 -6 0 -10 -28 -10 -65z"/>
<path d="M3075 9210 c-3 -5 -1 -10 4 -10 6 0 11 5 11 10 0 6 -2 10 -4 10 -3 0
-8 -4 -11 -10z"/>
<path d="M2480 9175 c0 -8 4 -15 8 -15 5 0 9 7 9 15 0 8 -4 15 -9 15 -4 0 -8
-7 -8 -15z"/>
<path d="M3071 9118 c1 -80 -1 -84 23 45 4 19 1 27 -9 27 -12 0 -15 -15 -14
-72z"/>
<path d="M10382 9138 c14 -85 16 -86 17 -15 1 50 -2 67 -13 67 -11 0 -11 -10
-4 -52z"/>
<path d="M7116 9133 c-6 -14 -5 -15 5 -6 7 7 10 15 7 18 -3 3 -9 -2 -12 -12z"/>
<path d="M3271 9124 c0 -11 3 -14 6 -6 3 7 2 16 -1 19 -3 4 -6 -2 -5 -13z"/>
<path d="M2440 9085 c0 -8 2 -15 4 -15 2 0 6 7 10 15 3 8 1 15 -4 15 -6 0 -10
-7 -10 -15z"/>
<path d="M11016 9085 c4 -8 8 -15 10 -15 2 0 4 7 4 15 0 8 -4 15 -10 15 -5 0
-7 -7 -4 -15z"/>
<path d="M2400 9005 c0 -8 2 -15 4 -15 2 0 6 7 10 15 3 8 1 15 -4 15 -6 0 -10
-7 -10 -15z"/>
<path d="M10426 8965 c4 -8 8 -15 10 -15 2 0 4 7 4 15 0 8 -4 15 -10 15 -5 0
-7 -7 -4 -15z"/>
<path d="M2360 8925 c0 -8 2 -15 4 -15 2 0 6 7 10 15 3 8 1 15 -4 15 -6 0 -10
-7 -10 -15z"/>
<path d="M2980 8878 c0 -19 2 -20 10 -8 13 19 13 30 0 30 -5 0 -10 -10 -10
-22z"/>
<path d="M2731 8573 c0 -244 2 -274 14 -243 10 26 14 100 14 278 1 209 -1 242
-14 242 -13 0 -15 -37 -14 -277z"/>
<path d="M10710 8608 c0 -140 4 -249 10 -258 6 -10 10 73 10 243 0 165 -4 257
-10 257 -6 0 -10 -87 -10 -242z"/>
<path d="M6157 8749 c7 -7 15 -10 18 -7 3 3 -2 9 -12 12 -14 6 -15 5 -6 -5z"/>
<path d="M2231 8658 c0 -18 3 -26 6 -18 3 8 10 23 15 33 6 12 5 17 -7 17 -10
0 -15 -10 -14 -32z"/>
<path d="M11221 8674 c0 -11 3 -14 6 -6 3 7 2 16 -1 19 -3 4 -6 -2 -5 -13z"/>
<path d="M12341 8598 c0 -7 4 -22 9 -33 7 -17 9 -15 9 13 1 17 -3 32 -9 32 -5
0 -10 -6 -9 -12z"/>
<path d="M7000 8461 c0 -44 5 -83 10 -86 6 -4 10 25 10 79 0 51 -4 86 -10 86
-6 0 -10 -33 -10 -79z"/>
<path d="M12220 8493 c-63 -19 -153 -46 -200 -60 l-85 -25 79 -24 c101 -30
136 -31 136 -4 0 17 7 20 45 20 41 0 45 2 45 25 0 22 4 25 39 25 24 0 44 6 52
17 10 11 10 14 2 9 -8 -4 -13 -2 -13 5 0 6 8 9 20 6 16 -4 20 0 20 19 0 30 0
30 -140 -13z"/>
<path d="M1925 8423 c-29 -118 -25 -113 -103 -113 l-69 0 -38 -136 c-33 -114
-36 -137 -24 -144 8 -6 15 -6 17 0 2 5 10 6 18 3 11 -4 14 8 14 60 0 39 5 69
12 73 7 4 8 3 4 -4 -4 -7 -1 -12 9 -12 11 0 16 8 15 23 -5 62 -2 67 40 67 33
0 40 3 40 20 0 13 7 20 20 20 13 0 20 7 20 20 0 15 7 20 25 20 25 0 25 1 25
85 0 47 -2 85 -4 85 -2 0 -11 -30 -21 -67z"/>
<path d="M11531 8388 c-1 -62 1 -68 19 -68 13 0 20 -7 20 -20 0 -13 7 -20 20
-20 13 0 20 -7 20 -20 0 -13 7 -20 20 -20 13 0 20 -7 20 -20 0 -18 7 -20 65
-20 63 0 65 -1 65 -25 0 -22 4 -25 40 -25 33 0 40 -3 40 -20 0 -13 7 -20 20
-20 11 0 20 -4 20 -9 0 -8 165 31 175 41 2 2 -108 39 -245 83 l-248 80 -25 75
-25 75 -1 -67z"/>
<path d="M9730 8346 c0 -32 3 -36 25 -36 23 0 25 -4 25 -40 0 -36 3 -40 24
-40 35 0 56 -10 56 -26 0 -8 9 -14 20 -14 13 0 20 -7 20 -20 0 -13 7 -20 20
-20 15 0 20 -7 20 -25 0 -18 5 -25 20 -25 13 0 20 -7 20 -20 0 -15 7 -20 25
-20 18 0 25 -5 25 -20 0 -13 7 -20 20 -20 13 0 20 -7 20 -20 0 -13 7 -20 20
-20 18 0 20 -7 20 -75 l0 -76 126 -130 c110 -114 137 -136 212 -175 96 -49
122 -54 122 -24 0 13 7 20 20 20 14 0 20 7 20 24 0 19 4 23 20 19 19 -5 20 0
20 81 0 79 2 86 20 86 16 0 20 7 21 33 1 17 1 36 0 40 -1 5 3 6 8 2 6 -3 8
-11 5 -19 -3 -7 2 -13 10 -13 8 0 13 8 11 19 -3 14 2 18 26 18 l29 0 -1 103
c-1 56 -3 93 -6 82 -17 -75 -27 -99 -54 -130 -75 -85 -177 -4 -196 155 -3 28
-10 50 -14 50 -5 0 -6 7 -3 15 4 9 0 15 -10 15 -13 0 -16 -13 -16 -76 0 -75 1
-77 41 -122 80 -91 131 -213 115 -276 -31 -125 -236 -61 -373 116 -51 66 -143
240 -143 269 0 15 -356 358 -381 367 -5 2 -9 -12 -9 -32z"/>
<path d="M3593 8253 c-70 -65 -151 -140 -180 -166 -28 -26 -55 -58 -59 -70
-52 -173 -199 -369 -322 -428 -54 -26 -122 -35 -151 -20 -19 11 -21 9 -21 -19
0 -23 4 -30 20 -30 13 0 20 -7 20 -20 0 -31 39 -25 106 15 33 20 69 38 81 41
11 3 78 66 147 140 l126 135 0 55 c0 47 2 54 20 54 17 0 20 7 20 40 0 33 3 40
20 40 13 0 20 7 20 20 0 13 7 20 20 20 13 0 20 7 20 20 0 15 7 20 24 20 18 0
25 6 28 23 2 12 10 22 18 22 8 0 17 11 21 25 4 14 7 21 8 17 1 -4 11 -2 24 5
12 7 25 11 29 10 4 -1 4 6 1 15 -4 11 -3 14 5 9 7 -4 12 -3 12 2 0 6 9 8 20 5
18 -5 20 0 20 36 0 34 3 41 20 41 16 0 20 7 20 30 0 17 -2 30 -5 30 -2 0 -61
-53 -132 -117z"/>
<path d="M1397 8300 l-117 -5 111 -70 c62 -38 116 -70 122 -70 10 0 47 107 47
138 0 12 -7 16 -22 15 -13 -1 -76 -4 -141 -8z"/>
<path d="M2931 8254 c0 -11 3 -14 6 -6 3 7 2 16 -1 19 -3 4 -6 -2 -5 -13z"/>
<path d="M10532 8250 c0 -14 2 -19 5 -12 2 6 2 18 0 25 -3 6 -5 1 -5 -13z"/>
<path d="M10766 8188 c9 -59 14 -60 14 -5 0 26 -5 47 -10 47 -6 0 -8 -16 -4
-42z"/>
<path d="M1030 8210 c0 -6 7 -10 15 -10 8 0 15 2 15 4 0 2 -7 6 -15 10 -8 3
-15 1 -15 -4z"/>
<path d="M1070 8155 c0 -38 3 -45 20 -45 13 0 20 -7 20 -20 0 -17 7 -20 45
-20 38 0 45 -3 45 -20 0 -13 7 -20 20 -20 13 0 20 -7 20 -20 0 -13 7 -20 20
-20 13 0 20 -7 20 -20 0 -17 7 -20 40 -20 36 0 40 -2 40 -25 0 -18 5 -25 20
-25 13 0 20 -7 20 -20 0 -17 7 -20 45 -20 38 0 45 -3 45 -20 0 -13 7 -20 20
-20 13 0 20 -7 20 -20 0 -13 7 -20 20 -20 13 0 20 -7 20 -20 0 -17 7 -20 40
-20 33 0 40 -3 40 -20 0 -17 7 -20 39 -20 22 0 43 5 46 10 3 6 -1 10 -11 10
-9 0 -37 17 -63 38 -39 32 -177 136 -527 394 l-64 48 0 -45z"/>
<path d="M2481 8099 c-1 -86 2 -106 14 -106 11 0 13 10 9 41 -3 23 -9 70 -13
106 -8 63 -8 62 -10 -41z"/>
<path d="M2596 8123 c9 -91 14 -92 14 -5 0 43 -4 72 -10 72 -7 0 -8 -24 -4
-67z"/>
<path d="M2693 8155 c0 -22 2 -30 4 -17 2 12 2 30 0 40 -3 9 -5 -1 -4 -23z"/>
<path d="M10860 8108 c0 -45 2 -79 4 -77 2 2 7 39 11 82 5 53 3 77 -4 77 -7 0
-11 -30 -11 -82z"/>
<path d="M2953 8077 c-2 -135 -64 -247 -135 -247 -54 0 -92 51 -114 150 l-12
55 -1 -47 -1 -48 -36 0 -36 0 7 -72 c8 -79 25 -117 25 -55 0 30 4 37 20 37 13
0 20 -7 20 -20 0 -19 19 -25 77 -23 7 0 12 -2 11 -6 -2 -21 4 -31 22 -31 17 0
20 -7 20 -40 0 -22 5 -40 10 -40 6 0 10 7 10 16 0 31 72 153 127 213 46 51 51
61 34 61 -20 0 -21 6 -21 85 0 61 -3 85 -12 85 -9 0 -13 -22 -15 -73z"/>
<path d="M6387 7979 c-69 -132 -76 -149 -58 -149 19 0 26 -11 22 -34 -2 -10
29 12 41 29 4 6 8 0 8 -12 0 -16 6 -23 19 -23 12 0 21 -8 23 -20 2 -13 7 -17
16 -12 9 7 12 51 10 189 l-3 181 -78 -149z"/>
<path d="M10970 8038 c-3 -31 -1 -53 3 -49 5 5 7 30 5 57 l-3 49 -5 -57z"/>
<path d="M2220 8028 c-1 -36 -15 -38 -99 -17 -45 11 -85 18 -88 15 -16 -16 14
-36 84 -55 43 -13 86 -25 96 -28 15 -5 17 2 17 46 0 28 -2 51 -5 51 -3 0 -5
-6 -5 -12z"/>
<path d="M1725 8010 c3 -5 8 -10 11 -10 2 0 4 5 4 10 0 6 -5 10 -11 10 -5 0
-7 -4 -4 -10z"/>
<path d="M12103 7901 c-200 -58 -363 -109 -363 -113 0 -5 47 -8 105 -8 96 0
105 2 105 19 0 10 6 19 13 18 6 0 42 1 80 1 60 2 67 4 67 22 0 18 7 20 85 20
78 0 85 2 85 20 0 18 7 20 60 20 57 0 60 1 60 25 0 23 4 25 45 25 43 0 45 1
45 30 0 18 -5 30 -12 29 -7 -1 -176 -49 -375 -108z"/>
<path d="M2486 7981 c-4 -6 -3 -18 2 -27 8 -15 10 -14 16 2 8 20 -8 42 -18 25z"/>
<path d="M2505 7920 c3 -5 8 -10 11 -10 2 0 4 5 4 10 0 6 -5 10 -11 10 -5 0
-7 -4 -4 -10z"/>
<path d="M11281 7843 c-1 -66 1 -73 18 -73 11 0 21 -4 23 -10 2 -6 33 -3 78 8
54 13 76 22 78 35 4 21 -15 22 -88 2 -30 -8 -60 -15 -67 -15 -6 0 -18 28 -26
63 l-15 62 -1 -72z"/>
<path d="M1758 7840 c-15 -58 -15 -60 3 -60 17 0 19 8 19 60 0 33 -1 60 -3 60
-1 0 -10 -27 -19 -60z"/>
<path d="M1981 7884 c0 -11 3 -14 6 -6 3 7 2 16 -1 19 -3 4 -6 -2 -5 -13z"/>
<path d="M2175 7857 c-11 -69 -13 -70 -89 -53 -84 20 -106 20 -106 1 0 -14 24
-23 120 -44 28 -6 46 -7 48 -1 2 6 12 10 23 10 17 0 19 8 19 65 0 36 -2 65 -4
65 -3 0 -8 -20 -11 -43z"/>
<path d="M10820 7833 c1 -77 14 -69 25 15 6 44 4 52 -9 52 -13 0 -16 -12 -16
-67z"/>
<path d="M11701 7848 c-1 -16 4 -28 9 -28 12 0 12 8 0 35 -8 18 -9 17 -9 -7z"/>
<path d="M9980 7773 c0 -39 2 -43 25 -43 18 0 25 -5 25 -20 0 -13 7 -20 20
-20 13 0 20 -7 20 -20 0 -13 7 -20 20 -20 15 0 20 -7 20 -25 0 -18 5 -25 20
-25 13 0 20 -7 20 -20 0 -13 7 -20 20 -20 13 0 20 -7 20 -20 0 -13 7 -20 20
-20 13 0 20 -7 20 -20 0 -15 7 -20 25 -20 23 0 25 -4 25 -40 0 -33 3 -40 20
-40 18 0 20 -7 20 -89 l0 -88 43 -53 c23 -28 58 -60 79 -71 20 -10 66 -41 102
-69 70 -53 106 -64 106 -30 0 13 7 20 20 20 11 0 20 7 20 15 0 11 -8 13 -30 9
-45 -10 -129 36 -192 105 -63 68 -117 166 -149 271 -22 75 -23 76 -180 235
l-159 160 0 -42z"/>
<path d="M3325 7648 c-144 -150 -155 -165 -169 -220 -5 -24 -3 -28 14 -28 17
0 20 7 20 40 0 33 3 40 20 40 13 0 20 7 20 20 0 15 7 20 25 20 18 0 25 5 25
20 0 13 7 20 20 20 13 0 20 7 20 20 0 13 7 20 20 20 15 0 20 7 20 25 0 18 5
25 20 25 13 0 20 7 20 20 0 13 7 20 20 20 13 0 20 7 20 20 0 13 7 20 20 20 16
0 20 7 20 35 0 19 -2 35 -4 35 -2 0 -70 -69 -151 -152z"/>
<path d="M1731 7744 c0 -11 3 -14 6 -6 3 7 2 16 -1 19 -3 4 -6 -2 -5 -13z"/>
<path d="M11321 7673 c-1 -59 2 -73 14 -73 18 0 18 -3 0 80 l-13 65 -1 -72z"/>
<path d="M2135 7674 c-3 -26 -9 -53 -12 -60 -3 -8 1 -14 11 -14 13 0 16 12 16
60 0 33 -2 60 -4 60 -2 0 -7 -21 -11 -46z"/>
<path d="M10967 7587 c15 -164 -69 -367 -152 -367 -56 0 -99 65 -115 174 l-8
51 -1 -47 c-1 -36 -5 -48 -16 -48 -19 0 -20 2 11 -65 15 -33 29 -87 34 -128 4
-40 8 -57 9 -39 1 31 2 32 46 32 33 0 45 -4 45 -15 0 -23 16 -18 36 12 9 15
36 48 59 73 38 41 45 56 74 175 17 72 34 138 37 148 4 13 -1 17 -20 17 -24 0
-26 3 -26 45 0 25 -4 45 -10 45 -5 0 -7 -25 -3 -63z"/>
<path d="M1942 7593 c2 -12 21 -21 63 -30 86 -18 107 -17 103 4 -2 13 -20 21
-68 30 -90 17 -102 16 -98 -4z"/>
<path d="M11430 7596 c-54 -9 -66 -15 -68 -32 -3 -21 -2 -21 70 -7 92 17 98
19 98 38 0 17 -10 17 -100 1z"/>
<path d="M2480 7581 c0 -11 -8 -21 -19 -23 -17 -3 -16 -12 19 -148 31 -125 41
-150 70 -180 18 -19 39 -45 48 -57 12 -20 23 -23 73 -23 56 0 59 -1 59 -24 0
-14 5 -28 10 -31 6 -4 10 11 10 38 0 51 24 139 51 185 18 32 18 32 -1 32 -18
0 -20 8 -22 88 l-1 87 -7 -100 c-5 -78 -11 -109 -29 -142 -76 -135 -197 -37
-232 189 -6 39 -8 84 -5 99 4 22 2 29 -9 29 -8 0 -15 -9 -15 -19z"/>
<path d="M5495 7570 c-19 -36 -19 -40 0 -40 10 0 15 10 15 29 0 20 6 31 18 34
16 4 16 5 0 6 -10 0 -24 -12 -33 -29z"/>
<path d="M7970 7533 c0 -36 3 -43 20 -43 17 0 20 -7 20 -40 0 -33 3 -40 20
-40 26 0 26 2 -20 90 l-39 75 -1 -42z"/>
<path d="M10693 7485 c0 -22 2 -30 4 -17 2 12 2 30 0 40 -3 9 -5 -1 -4 -23z"/>
<path d="M11360 7482 c0 -23 4 -42 9 -42 6 0 7 17 4 38 -8 51 -13 53 -13 4z"/>
<path d="M2103 7475 c0 -22 2 -30 4 -17 2 12 2 30 0 40 -3 9 -5 -1 -4 -23z"/>
<path d="M5452 7485 c-15 -33 -15 -35 3 -35 10 0 15 10 15 30 0 37 -3 37 -18
5z"/>
<path d="M2361 7403 c-1 -41 2 -53 14 -53 12 0 14 7 9 28 -19 74 -22 78 -23
25z"/>
<path d="M11093 7395 c-8 -36 -8 -45 3 -45 10 0 14 14 14 45 0 25 -1 45 -3 45
-2 0 -8 -20 -14 -45z"/>
<path d="M5413 7400 c-9 -25 -9 -30 3 -30 9 0 14 11 14 30 0 17 -1 30 -3 30
-1 0 -8 -13 -14 -30z"/>
<path d="M3131 7356 c-59 -169 -228 -332 -321 -311 -23 5 -30 3 -30 -9 0 -9 8
-16 20 -16 13 0 20 -7 20 -20 0 -35 43 -23 109 30 35 28 80 59 101 70 20 10
56 41 79 69 l42 50 -3 88 c-3 88 -3 88 -17 49z"/>
<path d="M8060 7363 c0 -23 5 -33 15 -33 18 0 18 8 0 40 l-14 25 -1 -32z"/>
<path d="M5372 7315 c-15 -33 -15 -35 3 -35 10 0 15 10 15 30 0 37 -3 37 -18
5z"/>
<path d="M8100 7278 c0 -28 4 -38 16 -38 11 0 14 6 8 23 -14 47 -23 53 -24 15z"/>
<path d="M2401 7243 c-1 -41 2 -53 14 -53 12 0 14 7 9 28 -19 74 -22 78 -23
25z"/>
<path d="M11053 7235 c-8 -36 -8 -45 3 -45 10 0 14 14 14 45 0 25 -1 45 -3 45
-2 0 -8 -20 -14 -45z"/>
<path d="M3231 7159 c-80 -97 -100 -135 -101 -197 0 -13 4 -20 10 -17 6 3 10
22 10 41 0 27 4 34 20 34 13 0 20 7 20 20 0 13 7 20 20 20 17 0 20 7 20 45 0
41 2 45 25 45 18 0 25 5 25 20 0 13 7 20 20 20 16 0 20 7 20 35 0 19 -1 35 -2
34 -2 0 -41 -45 -87 -100z"/>
<path d="M5332 7235 c-15 -33 -15 -35 3 -35 10 0 15 10 15 30 0 37 -3 37 -18
5z"/>
<path d="M10150 7228 c0 -31 3 -38 20 -38 13 0 20 -7 20 -20 0 -13 7 -20 20
-20 15 0 20 -7 20 -25 0 -20 5 -25 25 -25 23 0 25 -4 25 -40 0 -33 3 -40 20
-40 13 0 20 -7 20 -20 0 -11 5 -20 10 -20 7 0 8 14 4 38 -5 25 -26 59 -68 108
-33 38 -73 86 -88 105 l-27 34 -1 -37z"/>
<path d="M11402 7210 c0 -14 2 -19 5 -12 2 6 2 18 0 25 -3 6 -5 1 -5 -13z"/>
<path d="M8143 7196 c0 -14 3 -29 8 -31 15 -10 17 10 4 34 l-12 24 0 -27z"/>
<path d="M2062 7180 c0 -19 2 -27 5 -17 2 9 2 25 0 35 -3 9 -5 1 -5 -18z"/>
<path d="M5292 7155 c-15 -33 -15 -35 3 -35 10 0 15 10 15 30 0 37 -3 37 -18
5z"/>
<path d="M8181 7124 c0 -11 3 -14 6 -6 3 7 2 16 -1 19 -3 4 -6 -2 -5 -13z"/>
<path d="M5246 7062 c-4 -13 -5 -26 -2 -29 10 -11 18 4 14 29 l-4 23 -8 -23z"/>
<path d="M8220 7045 c0 -8 4 -15 10 -15 5 0 7 7 4 15 -4 8 -8 15 -10 15 -2 0
-4 -7 -4 -15z"/>
<path d="M2400 7001 c0 -11 -6 -21 -14 -23 -11 -2 -2 -37 40 -151 46 -124 60
-153 91 -180 20 -18 49 -50 65 -71 15 -21 28 -34 28 -28 0 7 9 12 20 12 13 0
20 7 20 20 0 13 7 20 20 20 13 0 20 -7 20 -20 0 -13 7 -20 20 -20 13 0 20 -7
20 -20 0 -15 7 -20 25 -20 18 0 25 -5 25 -20 0 -17 7 -20 40 -20 31 0 40 -4
40 -17 0 -28 127 113 202 223 76 112 89 137 64 128 -13 -5 -16 1 -16 32 0 38
-1 36 -34 -38 -76 -175 -205 -288 -301 -264 -52 13 -70 111 -40 212 9 30 11
50 5 52 -6 2 -10 12 -10 23 0 39 -18 17 -24 -29 -3 -26 -16 -68 -29 -93 -73
-146 -228 4 -253 245 -4 36 -11 66 -15 66 -5 0 -9 -9 -9 -19z"/>
<path d="M11050 6978 c-1 -152 -97 -328 -179 -328 -53 0 -111 97 -111 185 0
24 -28 17 -32 -7 -2 -13 2 -43 9 -67 7 -24 13 -73 13 -108 0 -55 -3 -67 -26
-90 -78 -78 -255 57 -334 257 l-29 75 -1 -68 c0 -68 0 -68 67 -165 67 -96 183
-220 183 -195 0 7 9 13 20 13 13 0 20 7 20 20 0 17 7 20 40 20 33 0 40 3 40
20 0 15 7 20 25 20 18 0 25 5 25 20 0 17 7 20 40 20 33 0 40 -3 40 -20 0 -11
2 -20 5 -20 3 0 33 28 67 63 56 57 65 73 106 182 61 164 64 175 46 175 -8 0
-14 9 -14 20 0 11 -4 20 -10 20 -5 0 -10 -19 -10 -42z"/>
<path d="M5208 6980 c-7 -24 -3 -38 8 -28 3 4 4 17 2 30 l-3 23 -7 -25z"/>
<path d="M8260 6965 c0 -8 4 -15 10 -15 5 0 7 7 4 15 -4 8 -8 15 -10 15 -2 0
-4 -7 -4 -15z"/>
<path d="M2280 6880 c0 -20 5 -30 14 -30 12 0 13 6 5 30 -6 17 -13 30 -15 30
-2 0 -4 -13 -4 -30z"/>
<path d="M5167 6896 c-4 -10 -5 -21 -2 -24 9 -9 17 6 13 25 -3 17 -4 17 -11
-1z"/>
<path d="M11177 6886 c-4 -15 -6 -31 -2 -34 10 -10 16 6 13 35 l-3 28 -8 -29z"/>
<path d="M5122 6805 c-10 -21 -9 -25 3 -25 9 0 15 10 15 25 0 14 -2 25 -3 25
-2 0 -9 -11 -15 -25z"/>
<path d="M2320 6785 c0 -8 4 -15 10 -15 5 0 7 7 4 15 -4 8 -8 15 -10 15 -2 0
-4 -7 -4 -15z"/>
<path d="M11133 6765 c-9 -29 -9 -35 3 -35 9 0 14 12 14 35 0 19 -1 35 -3 35
-2 0 -8 -16 -14 -35z"/>
<path d="M8353 6765 c0 -15 5 -25 14 -25 11 0 11 4 2 23 -16 31 -16 31 -16 2z"/>
<path d="M5086 6732 c-4 -13 -5 -26 -2 -29 10 -11 18 4 14 29 l-4 23 -8 -23z"/>
<path d="M3206 6715 c-16 -24 -16 -25 4 -25 15 0 20 7 20 25 0 14 -2 25 -4 25
-2 0 -11 -11 -20 -25z"/>
<path d="M8390 6687 c0 -18 5 -27 15 -27 13 0 14 4 4 23 -17 33 -19 33 -19 4z"/>
<path d="M2361 6678 c-1 -16 4 -28 9 -28 12 0 12 8 0 35 -8 18 -9 17 -9 -7z"/>
<path d="M11098 6680 c-7 -24 -3 -38 8 -28 3 4 4 17 2 30 l-3 23 -7 -25z"/>
<path d="M10280 6672 c0 -14 6 -22 16 -22 14 0 15 3 3 18 -7 9 -15 19 -16 21
-2 2 -3 -5 -3 -17z"/>
<path d="M3120 6593 c-53 -74 -90 -150 -90 -185 0 -4 9 -8 20 -8 18 0 20 7 20
60 0 53 2 60 20 60 13 0 20 7 20 20 0 13 7 20 20 20 13 0 20 7 20 20 0 13 7
20 20 20 17 0 20 7 20 40 0 22 -2 40 -4 40 -2 0 -32 -39 -66 -87z"/>
<path d="M5048 6650 c-7 -24 -3 -38 8 -28 3 4 4 17 2 30 l-3 23 -7 -25z"/>
<path d="M8430 6607 c0 -18 5 -27 15 -27 13 0 14 4 4 23 -17 33 -19 33 -19 4z"/>
<path d="M10320 6595 c0 -28 4 -35 20 -35 13 0 20 -7 20 -20 0 -13 7 -20 20
-20 17 0 20 -7 20 -40 0 -29 4 -40 15 -40 27 0 16 37 -36 114 -28 42 -52 76
-55 76 -2 0 -4 -16 -4 -35z"/>
<path d="M4996 6545 c-3 -8 -1 -15 4 -15 6 0 10 7 10 15 0 8 -2 15 -4 15 -2 0
-6 -7 -10 -15z"/>
<path d="M8470 6503 c0 -46 2 -53 20 -53 17 0 20 -7 20 -40 0 -36 3 -40 25
-40 23 0 25 -4 25 -45 0 -38 3 -45 20 -45 18 0 20 -7 20 -60 0 -53 2 -60 20
-60 17 0 20 -7 20 -40 0 -33 3 -40 20 -40 17 0 20 -7 20 -45 0 -38 3 -45 20
-45 27 0 25 -28 -2 -33 l-23 -4 23 -2 c19 -1 22 -7 22 -41 0 -33 3 -40 20 -40
17 0 20 -7 20 -45 0 -41 2 -45 25 -45 23 0 25 -4 25 -40 0 -33 3 -40 20 -40
18 0 20 -7 20 -60 0 -53 2 -60 20 -60 18 0 20 -7 20 -70 l0 -70 64 0 65 0
-206 418 c-113 229 -227 463 -254 520 -27 56 -52 102 -55 102 -3 0 -3 -4 0 -8
3 -5 -1 -9 -8 -9 -11 0 -11 5 -4 17 8 12 6 24 -5 46 l-16 29 -1 -52z"/>
<path d="M4988 6493 c7 -3 16 -2 19 1 4 3 -2 6 -13 5 -11 0 -14 -3 -6 -6z"/>
<path d="M4947 6445 c-16 -34 -16 -35 3 -35 16 0 20 7 20 35 0 19 -1 35 -3 35
-2 0 -11 -16 -20 -35z"/>
<path d="M4907 6365 c-16 -34 -16 -35 3 -35 16 0 20 7 20 35 0 19 -1 35 -3 35
-2 0 -11 -16 -20 -35z"/>
<path d="M4827 6203 c-31 -65 -126 -260 -211 -435 -86 -174 -156 -319 -156
-322 0 -3 32 -6 71 -6 47 0 68 3 64 11 -4 6 -13 8 -20 5 -9 -3 -13 2 -12 15 1
21 23 26 30 7 3 -7 6 24 6 69 1 72 3 82 21 88 16 5 20 15 20 56 0 42 3 49 20
49 17 0 20 7 20 45 0 38 3 45 20 45 17 0 20 7 20 40 0 33 3 40 20 40 17 0 20
7 21 43 1 23 1 50 0 60 -2 12 5 17 23 17 24 0 26 3 26 45 0 38 3 45 20 45 18
0 20 7 20 60 0 36 4 60 11 60 5 0 8 -4 5 -8 -3 -5 1 -9 8 -9 8 0 13 17 15 49
1 26 0 48 -2 48 -2 0 -29 -53 -60 -117z m-237 -683 c0 -5 -2 -10 -4 -10 -3 0
-8 5 -11 10 -3 6 -1 10 4 10 6 0 11 -4 11 -10z"/>
<path d="M10730 6290 c0 -11 -4 -20 -10 -20 -5 0 -7 -7 -3 -16 5 -13 7 -14 13
-3 16 29 21 59 11 59 -6 0 -11 -9 -11 -20z"/>
<path d="M11602 6255 c0 -16 2 -22 5 -12 2 9 2 23 0 30 -3 6 -5 -1 -5 -18z"/>
<path d="M2740 6250 c0 -11 2 -20 4 -20 2 0 6 9 9 20 3 11 1 20 -4 20 -5 0 -9
-9 -9 -20z"/>
<path d="M3022 6230 c0 -14 2 -19 5 -12 2 6 2 18 0 25 -3 6 -5 1 -5 -13z"/>
<path d="M9980 6160 c0 -57 1 -60 25 -60 24 0 25 -3 25 -60 0 -53 2 -60 20
-60 18 0 20 -7 20 -65 0 -58 2 -65 20 -65 24 0 24 -2 4 80 -23 102 -94 290
-108 290 -4 0 -6 -27 -6 -60z"/>
<path d="M3021 6184 c0 -11 3 -14 6 -6 3 7 2 16 -1 19 -3 4 -6 -2 -5 -13z"/>
<path d="M3441 6123 c-90 -212 -137 -553 -92 -663 7 -18 10 26 10 163 1 180 2
187 21 187 18 0 20 7 20 85 0 78 2 85 20 85 18 0 20 7 20 60 0 53 2 60 20 60
17 0 20 7 20 50 0 28 -2 50 -4 50 -2 0 -18 -34 -35 -77z"/>
<path d="M1860 6106 c0 -81 1 -86 21 -86 13 0 19 5 16 13 -3 8 -8 44 -12 80
-11 97 -25 92 -25 -7z"/>
<path d="M11597 6173 c-3 -5 -8 -41 -12 -80 -6 -63 -5 -73 9 -73 13 0 16 13
16 80 0 75 -3 90 -13 73z"/>
<path d="M10440 6118 c0 -54 2 -58 23 -58 12 0 18 4 12 8 -5 4 -12 23 -13 42
-7 64 -21 69 -22 8z"/>
<path d="M2401 6113 c-1 -47 1 -53 19 -53 17 0 20 -7 20 -40 0 -33 3 -40 20
-40 13 0 20 -7 20 -20 0 -15 7 -20 25 -20 18 0 25 -5 25 -20 0 -13 7 -20 20
-20 15 0 20 -7 20 -25 0 -18 5 -25 20 -25 13 0 20 -7 20 -20 0 -13 7 -20 20
-20 19 0 20 -7 20 -125 0 -118 1 -125 20 -125 18 0 20 -7 20 -60 0 -52 -2 -60
-19 -60 -28 0 -33 -45 -8 -67 11 -10 37 -40 58 -66 44 -56 46 -49 20 65 -29
124 -61 322 -68 418 -8 118 -21 146 -75 162 -65 19 -167 125 -191 198 -3 8 -6
-9 -6 -37z"/>
<path d="M3016 6143 c-17 -61 -17 -83 -2 -83 12 0 16 11 16 50 0 51 -5 63 -14
33z"/>
<path d="M11052 6117 c-15 -43 -101 -130 -149 -151 -71 -32 -82 -39 -87 -53
-3 -8 -10 -64 -16 -126 -11 -118 -51 -351 -76 -450 -20 -77 -14 -88 19 -40 15
22 40 52 56 67 33 32 33 77 0 71 -16 -3 -19 2 -19 41 0 37 3 44 20 44 19 0 20
7 20 145 0 138 1 145 20 145 13 0 20 7 20 20 0 13 7 20 20 20 15 0 20 7 20 25
0 18 5 25 20 25 13 0 20 7 20 20 0 13 7 20 20 20 13 0 20 7 20 20 0 15 7 20
25 20 18 0 25 5 25 20 0 13 7 20 20 20 18 0 20 7 20 65 0 36 -1 65 -3 65 -2 0
-8 -15 -15 -33z"/>
<path d="M10480 5997 c0 -54 1 -57 25 -57 23 0 25 -4 25 -45 0 -38 3 -45 20
-45 13 0 20 -7 20 -20 0 -13 7 -20 19 -20 15 0 21 -8 24 -37 2 -21 4 -3 5 39
2 93 -1 102 -45 129 -20 12 -48 43 -64 68 l-29 45 0 -57z"/>
<path d="M2947 5989 c-15 -22 -38 -45 -52 -51 -30 -14 -45 -56 -44 -122 1 -28
4 -41 6 -28 3 14 12 22 24 22 12 0 19 7 19 20 0 13 7 20 20 20 17 0 20 7 20
45 0 38 3 45 20 45 17 0 20 7 20 45 0 25 -1 45 -2 45 -2 -1 -15 -19 -31 -41z"/>
<path d="M2096 5978 c9 -59 14 -60 14 -5 0 26 -5 47 -10 47 -6 0 -8 -16 -4
-42z"/>
<path d="M11367 5993 c-4 -3 -7 -22 -6 -42 l1 -36 9 39 c9 39 8 52 -4 39z"/>
<path d="M11575 5989 c7 -11 35 -12 35 -1 0 4 -9 8 -20 9 -11 1 -18 -2 -15 -8z"/>
<path d="M3230 5818 c0 -45 2 -79 4 -77 2 2 7 39 11 82 5 53 3 77 -4 77 -7 0
-11 -30 -11 -82z"/>
<path d="M10222 5875 c0 -16 2 -22 5 -12 2 9 2 23 0 30 -3 6 -5 -1 -5 -18z"/>
<path d="M10111 5640 c0 -165 2 -201 12 -185 15 25 14 278 -1 345 -8 36 -10 3
-11 -160z"/>
<path d="M6378 5783 l-68 -4 0 -39 0 -40 65 0 c36 0 65 -4 65 -9 0 -5 -9 -7
-20 -4 -14 4 -20 0 -20 -11 0 -14 34 -16 345 -16 292 0 345 2 345 14 0 8 -8
17 -17 19 -10 3 12 5 50 6 l67 1 0 38 0 39 -97 6 c-97 7 -586 6 -715 0z"/>
<path d="M2141 5754 c0 -11 3 -14 6 -6 3 7 2 16 -1 19 -3 4 -6 -2 -5 -13z"/>
<path d="M11322 5750 c0 -14 2 -19 5 -12 2 6 2 18 0 25 -3 6 -5 1 -5 -13z"/>
<path d="M1905 5740 c-3 -5 -1 -10 4 -10 6 0 11 5 11 10 0 6 -2 10 -4 10 -3 0
-8 -4 -11 -10z"/>
<path d="M8818 5663 c7 -3 16 -2 19 1 4 3 -2 6 -13 5 -11 0 -14 -3 -6 -6z"/>
<path d="M2171 5638 c1 -7 5 -24 9 -38 7 -22 8 -21 9 13 1 20 -3 37 -9 37 -5
0 -10 -6 -9 -12z"/>
<path d="M2871 5633 c0 -10 6 -52 14 -93 l13 -75 1 93 c1 76 -2 92 -14 92 -8
0 -15 -8 -14 -17z"/>
<path d="M11281 5608 c1 -37 2 -39 9 -18 12 36 12 60 0 60 -5 0 -10 -19 -9
-42z"/>
<path d="M10571 5528 c1 -40 4 -62 6 -48 2 14 8 46 12 73 7 37 5 47 -5 47 -11
0 -14 -17 -13 -72z"/>
<path d="M2222 5460 c0 -14 2 -19 5 -12 2 6 2 18 0 25 -3 6 -5 1 -5 -13z"/>
<path d="M11230 5440 c0 -33 -3 -40 -20 -40 -18 0 -20 -6 -19 -57 l0 -58 20
55 c43 116 48 140 33 140 -10 0 -14 -12 -14 -40z"/>
<path d="M2360 5400 c0 -43 3 -50 20 -50 13 0 20 -7 20 -20 0 -13 7 -20 20
-20 13 0 20 -7 20 -20 0 -13 7 -20 20 -20 17 0 20 -7 20 -40 0 -36 3 -40 25
-40 18 0 25 -5 25 -20 0 -13 7 -20 20 -20 17 0 20 -7 20 -46 0 -41 2 -46 20
-41 16 4 20 0 20 -19 0 -17 6 -24 20 -24 13 0 20 -7 20 -20 0 -13 7 -20 20
-20 13 0 20 -7 20 -20 0 -11 5 -20 10 -20 6 0 10 -7 10 -16 0 -8 -4 -12 -10
-9 -5 3 -10 1 -10 -4 0 -21 29 -11 33 12 2 12 5 3 6 -20 1 -28 6 -43 14 -43
28 0 105 -62 156 -125 30 -36 55 -64 57 -62 2 2 -15 50 -37 106 -40 99 -48
109 -227 319 -192 226 -285 327 -314 343 -16 9 -18 4 -18 -41z"/>
<path d="M11038 5393 c-25 -27 -136 -153 -246 -281 -210 -245 -208 -243 -279
-437 -3 -11 16 7 44 40 61 73 124 131 152 140 12 3 21 15 21 26 0 13 7 19 24
19 13 0 24 6 23 13 -2 50 4 67 23 67 13 0 20 7 20 20 0 13 7 20 20 20 13 0 20
7 20 20 0 13 7 20 20 20 20 0 25 15 20 68 -1 16 4 22 19 22 14 0 21 6 21 20 0
13 7 20 20 20 13 0 20 7 20 20 0 15 7 20 25 20 23 0 25 4 25 40 0 33 3 40 20
40 13 0 20 7 20 20 0 13 7 20 20 20 17 0 20 7 20 45 0 58 -13 58 -72 -2z
m-283 -472 c-3 -6 -11 -11 -16 -11 -5 0 -4 6 3 14 14 16 24 13 13 -3z"/>
<path d="M2256 5353 c21 -72 22 -72 23 -10 1 50 -1 57 -18 57 -18 0 -18 -3 -5
-47z"/>
<path d="M2915 5378 c3 -13 9 -41 14 -63 9 -39 9 -38 10 23 1 49 -2 62 -14 62
-11 0 -14 -7 -10 -22z"/>
<path d="M3386 5385 c4 -8 8 -15 10 -15 2 0 4 7 4 15 0 8 -4 15 -10 15 -5 0
-7 -7 -4 -15z"/>
<path d="M10070 5385 c0 -8 2 -15 4 -15 2 0 6 7 10 15 3 8 1 15 -4 15 -6 0
-10 -7 -10 -15z"/>
<path d="M10531 5313 c1 -43 2 -45 9 -18 11 44 11 65 0 65 -5 0 -9 -21 -9 -47z"/>
<path d="M10031 5294 c0 -11 3 -14 6 -6 3 7 2 16 -1 19 -3 4 -6 -2 -5 -13z"/>
<path d="M2296 5243 c6 -26 21 -65 52 -133 9 -22 11 -20 11 28 1 46 -1 52 -19
52 -17 0 -20 7 -20 40 0 29 -4 40 -15 40 -12 0 -14 -7 -9 -27z"/>
<path d="M3463 5254 c-3 -8 -1 -29 5 -47 10 -31 10 -31 9 15 -2 52 -4 57 -14
32z"/>
<path d="M11151 5223 l1 -48 13 35 c18 47 18 60 0 60 -11 0 -15 -12 -14 -47z"/>
<path d="M2956 5203 c19 -75 22 -79 23 -25 1 40 -2 52 -14 52 -12 0 -14 -7 -9
-27z"/>
<path d="M10481 5153 l1 -78 19 70 c23 87 23 85 -1 85 -18 0 -20 -6 -19 -77z"/>
<path d="M3642 5130 c0 -19 2 -27 5 -17 2 9 2 25 0 35 -3 9 -5 1 -5 -18z"/>
<path d="M11110 5113 c0 -42 3 -41 18 5 9 26 8 32 -4 32 -10 0 -14 -11 -14
-37z"/>
<path d="M9831 5098 c17 -34 19 -34 19 -5 0 18 -5 27 -15 27 -13 0 -14 -4 -4
-22z"/>
<path d="M2370 5056 c0 -2 7 -19 15 -37 l14 -34 1 38 c0 26 -4 37 -15 37 -8 0
-15 -2 -15 -4z"/>
<path d="M11070 5023 c1 -39 10 -33 24 15 6 16 3 22 -8 22 -12 0 -16 -10 -16
-37z"/>
<path d="M1211 4254 c0 -11 3 -14 6 -6 3 7 2 16 -1 19 -3 4 -6 -2 -5 -13z"/>
<path d="M11005 4200 c3 -5 8 -10 11 -10 2 0 4 5 4 10 0 6 -5 10 -11 10 -5 0
-7 -4 -4 -10z"/>
</g>
</svg>
